<?xml version="1.0" encoding="utf-8"?>
<!-- Generator: Adobe Illustrator 26.0.2, SVG Export Plug-In . SVG Version: 6.00 Build 0)  -->
<svg version="1.1" id="sw-js-blob-svg" xmlns="http://www.w3.org/2000/svg" xmlns:xlink="http://www.w3.org/1999/xlink" x="0px"
	 y="0px" viewBox="0 0 80.3 73.9" style="enable-background:new 0 0 80.3 73.9;" xml:space="preserve">
<style type="text/css">
	.st0{fill:url(#SVGID_1_);}
	.st1{fill:#F8AB5D;}
	.st2{fill:#FFE779;}
	.st3{fill:#6DAFA7;}
	.st4{fill:#F4C2C9;}
	.st5{fill:#22272E;}
	.st6{fill:none;stroke:#22272E;stroke-linecap:round;stroke-linejoin:round;}
</style>
<linearGradient id="SVGID_1_" gradientUnits="userSpaceOnUse" x1="-254.4823" y1="453.2643" x2="-253.4823" y2="454.2643" gradientTransform="matrix(78.4297 0 0 -63.236 19957.7617 28735.5801)">
	<stop  offset="0" style="stop-color:#9C9592"/>
	<stop  offset="1" style="stop-color:#6D9E99"/>
</linearGradient>
<path class="st0" d="M66.2,15.1c7.2,4.4,11.7,14.3,12.2,24.6s-3.1,21.1-10.2,27.5c-7.2,6.3-18,8.1-26.3,5.6
	c-8.2-2.5-14-9.5-21.6-15.8S3.1,44.9,0.7,36.7c-2.5-8.1,2.1-18.8,9.8-23.2C18.1,9.1,28.8,11,39,11.4C49.2,11.8,59.1,10.8,66.2,15.1z
	"/>
<g>
	<g id="Isolation_Mode_00000019668143609007721980000009462939379737550766_">
		<path class="st1" d="M67.8,50.9c-13.8,13.4-30.9,16-37.1,6.8c-5.5-8.1-0.3-22.6,10.9-33c11-10.3,25.6-14.5,33.5-9.1
			C84,21.6,81.4,37.7,67.8,50.9z"/>
		<path class="st2" d="M65.9,48.8c-13.8,13.4-30.9,16-37.1,6.8c-5.5-8.1-0.3-22.6,10.9-33c11-10.3,25.6-14.5,33.5-9.1
			C82.1,19.7,79.4,35.7,65.9,48.8z"/>
		<path class="st3" d="M60.1,43c-8.3,7.9-18.7,9.9-22.9,4.6c-3.8-4.9-0.8-14.1,6.5-21c7.2-6.7,16.6-9.3,21.4-5.5
			C70.4,25.2,68.3,35.1,60.1,43z"/>
		<path class="st4" d="M54.8,37.7c-3.3,3.1-7.5,4-9.3,2C43.8,37.8,44.9,34,48,31c3.1-2.9,7.1-3.9,9-2.1C59,30.6,58.1,34.6,54.8,37.7
			z"/>
		<path class="st5" d="M33.6,17.7L33.6,17.7c-1.3,1.2-3.2,1.1-4.4-0.2c0,0,0,0,0,0L18.5,3.9c-0.5-0.7-0.5-1.7,0.2-2.3l0,0
			C19.4,1,20.4,1,21,1.6l12.7,11.6c1.2,1.2,1.2,3.1,0,4.3C33.7,17.5,33.6,17.6,33.6,17.7z"/>
		<path class="st3" d="M21,6.5L17.6,7c-1,0.1-1.3,1.3-0.6,1.9l0,0c2.1,1.8,4.7,3.1,7.4,3.5l1.7,0.3c0.1,0,0.2-0.1,0.3-0.2
			c0-0.1,0-0.1,0-0.2L22,6.9C21.8,6.6,21.4,6.4,21,6.5z"/>
		<path class="st3" d="M23.5,4.2l0.8-3.3c0.1-0.6,0.7-1,1.3-0.9c0.3,0.1,0.5,0.2,0.7,0.4l0,0c1.7,2.2,2.7,4.9,2.9,7.6l0.1,1.7
			c0,0.1-0.1,0.2-0.2,0.2c0,0-0.1,0-0.1,0l-5.1-4.7C23.5,5,23.4,4.6,23.5,4.2z"/>
		<line class="st6" x1="33.1" y1="17.1" x2="36.5" y2="20.8"/>
	</g>
</g>
</svg>
