<?xml version="1.0" encoding="utf-8"?>
<!-- Generator: Adobe Illustrator 26.0.2, SVG Export Plug-In . SVG Version: 6.00 Build 0)  -->
<svg version="1.1" id="sw-js-blob-svg" xmlns="http://www.w3.org/2000/svg" xmlns:xlink="http://www.w3.org/1999/xlink" x="0px"
	 y="0px" viewBox="0 0 67.1 59.6" style="enable-background:new 0 0 67.1 59.6;" xml:space="preserve">
<style type="text/css">
	.st0{fill:url(#SVGID_1_);}
	.st1{fill:#22272E;}
	.st2{fill:#63737A;}
</style>
<linearGradient id="SVGID_1_" gradientUnits="userSpaceOnUse" x1="-260.5817" y1="446.6249" x2="-259.5817" y2="447.6249" gradientTransform="matrix(67.1343 0 0 -59.5881 17495.7637 26674.7109)">
	<stop  offset="0" style="stop-color:#FCF6EA"/>
	<stop  offset="1" style="stop-color:#FFE779"/>
</linearGradient>
<path class="st0" d="M52.2,18.1c7.2,8.3,15.4,16.5,14.9,24.4c-0.5,7.8-9.7,15.3-18.4,16.8S31.8,56.4,23,52.4
	C14.1,48.5,4.6,45,1.3,38c-3.2-6.9-0.3-17.4,6-25.5C13.5,4.5,23.1-1.1,31,0.2C38.9,1.6,45.1,9.9,52.2,18.1z"/>
<g>
	<g id="Isolation_Mode_00000093872116768348819740000001911373425440518054_">
		<path class="st1" d="M28.4,42.2l-17.5-6.7c-0.5-0.2-0.8-0.7-0.8-1.2l0,0l28.1-4.1c0,0,3.5,5.8,3.1,6
			C40.9,36.3,28.4,42.2,28.4,42.2z"/>
		<path class="st2" d="M10.1,34.4l18.7,6.6l10.8-5.2c0,0-2.4-5.3-2.6-5.2C36.7,30.5,10.1,34.4,10.1,34.4z"/>
		<path class="st1" d="M28,41.1l6.1-26c0.3-1.3,1.4-2.2,2.7-2.2L65,12.1c0.7,0,1.3,0.7,1.1,1.4l-5.7,20c-0.3,1-1.1,1.8-2.1,2
			l-28.9,6.9C28.5,42.5,27.8,41.9,28,41.1z"/>
		<ellipse transform="matrix(0.282 -0.9594 0.9594 0.282 11.5865 66.5982)" class="st2" cx="50.3" cy="25.6" rx="2.7" ry="1.7"/>
	</g>
</g>
</svg>
