<?xml version="1.0" standalone="no"?><svg xmlns:xlink="http://www.w3.org/1999/xlink" xmlns="http://www.w3.org/2000/svg" viewBox="0 0 2000 4000.0000000000005" preserveAspectRatio="xMaxYMax slice"><g transform="scale(6.0698027314112295)"><rect x="0" y="0" width="329.5" height="659" fill="#fcf6ea"/><rect x="0" y="0" width="54.916666666666664" height="54.916666666666664" fill="#fcf6ea"/><g transform="translate(0,0) scale(1.373) rotate(0)"><path fill-rule="evenodd" clip-rule="evenodd" d="M10 20C15.5228 20 20 15.5228 20 10C20 4.47715 15.5228 0 10 0C4.47715 0 0 4.47715 0 10C0 15.5228 4.47715 20 10 20ZM10 17C13.866 17 17 13.866 17 10C17 6.13401 13.866 3 10 3C6.13401 3 3 6.13401 3 10C3 13.866 6.13401 17 10 17Z" fill="#6d9e99"/></g><circle cx="41.19" cy="13.73" r="13.73" fill="#ffffff"/><circle cx="13.73" cy="41.19" r="13.73" fill="#6d9e99"/><g transform="translate(27.46,27.46) scale(1.373) rotate(0)"><path d="M10 0H20V10L10 20H0V10L10 0Z" fill="#6d9e99"/></g><g transform="translate(54.92,0) scale(2.746) rotate(0)"><path d="M10 0H20L0 20V10L10 0Z" fill="#ffe779"/><path d="M20 10V20H10L20 10Z" fill="#ffe779"/></g><circle cx="137.29" cy="27.46" r="27.46" fill="#ffe779"/><rect x="164.75" y="0" width="54.916666666666664" height="54.916666666666664" fill="#fcf6ea"/><g transform="translate(164.75,0) scale(1.373) rotate(0)"><path d="M10 0H20L0 20V10L10 0Z" fill="#ffffff"/><path d="M20 10V20H10L20 10Z" fill="#ffffff"/></g><g transform="translate(192.21,0) scale(1.373) rotate(0)"><path d="M10 0L20 10L10 20L0 10L10 0Z" fill="#f4c2c9"/></g><g transform="translate(164.75,27.46) scale(1.373) rotate(0)"><path d="M10 0H20L0 20V10L10 0Z" fill="#f4c2c9"/><path d="M20 10V20H10L20 10Z" fill="#f4c2c9"/></g><circle cx="205.94" cy="41.19" r="13.73" fill="#ffffff"/><g transform="translate(219.67,0) scale(2.746) rotate(0)"><path d="M10 0L20 10L10 20L0 10L10 0Z" fill="#ffffff"/></g><g transform="translate(274.58,0) scale(2.746) rotate(0)"><path d="M10 0H20L0 20V10L10 0Z" fill="#ffe779"/><path d="M20 10V20H10L20 10Z" fill="#ffe779"/></g><g transform="translate(0,54.92) scale(2.746) rotate(0)"><path d="M10 0L20 10L10 20L0 10L10 0Z" fill="#6d9e99"/></g><g transform="translate(54.92,54.92) scale(2.746) rotate(0)"><path d="M10 0L20 10L10 20L0 10L10 0Z" fill="#6d9e99"/></g><g transform="translate(109.83,54.92) scale(2.746) rotate(0)"><path d="M10 0H20L0 20V10L10 0Z" fill="#ffffff"/><path d="M20 10V20H10L20 10Z" fill="#ffffff"/></g><circle cx="192.21" cy="82.38" r="27.46" fill="#ffffff"/><g transform="translate(219.67,54.92) scale(2.746) rotate(0)"><path d="M10 0H20V10L10 20H0V10L10 0Z" fill="#f4c2c9"/></g><g transform="translate(274.58,54.92) scale(2.746) rotate(0)"><path d="M10 0H20L0 20V10L10 0Z" fill="#ffe779"/><path d="M20 10V20H10L20 10Z" fill="#ffe779"/></g><g transform="translate(0,109.83) scale(2.746) rotate(0)"><path d="M10 0H20L0 20V10L10 0Z" fill="#ffe779"/><path d="M20 10V20H10L20 10Z" fill="#ffe779"/></g><g transform="translate(54.92,109.83) scale(2.746) rotate(0)"><path d="M10 0L20 10L10 20L0 10L10 0Z" fill="#6d9e99"/></g><circle cx="137.29" cy="137.29" r="27.46" fill="#f4c2c9"/><g transform="translate(164.75,109.83) scale(2.746) rotate(0)"><path fill-rule="evenodd" clip-rule="evenodd" d="M10 20C15.5228 20 20 15.5228 20 10C20 4.47715 15.5228 0 10 0C4.47715 0 0 4.47715 0 10C0 15.5228 4.47715 20 10 20ZM10 17C13.866 17 17 13.866 17 10C17 6.13401 13.866 3 10 3C6.13401 3 3 6.13401 3 10C3 13.866 6.13401 17 10 17Z" fill="#ffe779"/></g><g transform="translate(219.67,109.83) scale(2.746) rotate(0)"><path d="M10 0H20V10L10 20H0V10L10 0Z" fill="#ffffff"/></g><g transform="translate(274.58,109.83) scale(2.746) rotate(0)"><path d="M10 0H20V10L10 20H0V10L10 0Z" fill="#ffffff"/></g><g transform="translate(0,164.75) scale(2.746) rotate(0)"><path d="M10 0L20 10L10 20L0 10L10 0Z" fill="#f4c2c9"/></g><g transform="translate(54.92,164.75) scale(2.746) rotate(0)"><path d="M10 0L20 10L10 20L0 10L10 0Z" fill="#ffffff"/></g><rect x="109.83333333333333" y="164.75" width="54.916666666666664" height="54.916666666666664" fill="#fcf6ea"/><g transform="translate(109.83,164.75) scale(1.373) rotate(0)"><path fill-rule="evenodd" clip-rule="evenodd" d="M10 20C15.5228 20 20 15.5228 20 10C20 4.47715 15.5228 0 10 0C4.47715 0 0 4.47715 0 10C0 15.5228 4.47715 20 10 20ZM10 17C13.866 17 17 13.866 17 10C17 6.13401 13.866 3 10 3C6.13401 3 3 6.13401 3 10C3 13.866 6.13401 17 10 17Z" fill="#ffe779"/></g><g transform="translate(137.29,164.75) scale(1.373) rotate(0)"><path d="M10 0H20L0 20V10L10 0Z" fill="#ffffff"/><path d="M20 10V20H10L20 10Z" fill="#ffffff"/></g><g transform="translate(109.83,192.21) scale(1.373) rotate(0)"><path d="M10 0H20L0 20V10L10 0Z" fill="#6d9e99"/><path d="M20 10V20H10L20 10Z" fill="#6d9e99"/></g><g transform="translate(137.29,192.21) scale(1.373) rotate(0)"><path d="M10 0H20L0 20V10L10 0Z" fill="#ffffff"/><path d="M20 10V20H10L20 10Z" fill="#ffffff"/></g><rect x="164.75" y="164.75" width="54.916666666666664" height="54.916666666666664" fill="#fcf6ea"/><g transform="translate(164.75,164.75) scale(1.373) rotate(0)"><path d="M10 0H20L0 20V10L10 0Z" fill="#f4c2c9"/><path d="M20 10V20H10L20 10Z" fill="#f4c2c9"/></g><g transform="translate(192.21,164.75) scale(1.373) rotate(0)"><path d="M10 0H20V10L10 20H0V10L10 0Z" fill="#ffffff"/></g><g transform="translate(164.75,192.21) scale(1.373) rotate(0)"><path d="M10 0H20V10L10 20H0V10L10 0Z" fill="#ffffff"/></g><g transform="translate(192.21,192.21) scale(1.373) rotate(0)"><path d="M10 0H20L0 20V10L10 0Z" fill="#6d9e99"/><path d="M20 10V20H10L20 10Z" fill="#6d9e99"/></g><g transform="translate(219.67,164.75) scale(2.746) rotate(0)"><path d="M10 0L20 10L10 20L0 10L10 0Z" fill="#ffe779"/></g><g transform="translate(274.58,164.75) scale(2.746) rotate(0)"><path d="M10 0H20L0 20V10L10 0Z" fill="#ffffff"/><path d="M20 10V20H10L20 10Z" fill="#ffffff"/></g><g transform="translate(0,219.67) scale(2.746) rotate(0)"><path d="M10 0H20L0 20V10L10 0Z" fill="#ffffff"/><path d="M20 10V20H10L20 10Z" fill="#ffffff"/></g><rect x="54.916666666666664" y="219.66666666666666" width="54.916666666666664" height="54.916666666666664" fill="#fcf6ea"/><circle cx="68.65" cy="233.39999999999998" r="13.73" fill="#ffffff"/><g transform="translate(82.38,219.67) scale(1.373) rotate(0)"><path d="M10 0L20 10L10 20L0 10L10 0Z" fill="#f4c2c9"/></g><g transform="translate(54.92,247.13) scale(1.373) rotate(0)"><path d="M10 0H20V10L10 20H0V10L10 0Z" fill="#ffffff"/></g><g transform="translate(82.38,247.13) scale(1.373) rotate(0)"><path d="M10 0L20 10L10 20L0 10L10 0Z" fill="#ffffff"/></g><g transform="translate(109.83,219.67) scale(2.746) rotate(0)"><path d="M10 0H20L0 20V10L10 0Z" fill="#f4c2c9"/><path d="M20 10V20H10L20 10Z" fill="#f4c2c9"/></g><rect x="164.75" y="219.66666666666666" width="54.916666666666664" height="54.916666666666664" fill="#fcf6ea"/><g transform="translate(164.75,219.67) scale(1.373) rotate(0)"><path d="M10 0L20 10L10 20L0 10L10 0Z" fill="#6d9e99"/></g><g transform="translate(192.21,219.67) scale(1.373) rotate(0)"><path d="M10 0L20 10L10 20L0 10L10 0Z" fill="#f4c2c9"/></g><circle cx="178.48" cy="260.86" r="13.73" fill="#6d9e99"/><g transform="translate(192.21,247.13) scale(1.373) rotate(0)"><path d="M10 0L20 10L10 20L0 10L10 0Z" fill="#6d9e99"/></g><circle cx="247.13" cy="247.13" r="27.46" fill="#ffe779"/><g transform="translate(274.58,219.67) scale(2.746) rotate(0)"><path d="M10 0L20 10L10 20L0 10L10 0Z" fill="#f4c2c9"/></g><rect x="0" y="274.5833333333333" width="54.916666666666664" height="54.916666666666664" fill="#fcf6ea"/><g transform="translate(0,274.58) scale(1.373) rotate(0)"><path d="M10 0H20V10L10 20H0V10L10 0Z" fill="#ffe779"/></g><g transform="translate(27.46,274.58) scale(1.373) rotate(0)"><path d="M10 0H20L0 20V10L10 0Z" fill="#ffffff"/><path d="M20 10V20H10L20 10Z" fill="#ffffff"/></g><g transform="translate(0,302.04) scale(1.373) rotate(0)"><path d="M10 0H20L0 20V10L10 0Z" fill="#ffe779"/><path d="M20 10V20H10L20 10Z" fill="#ffe779"/></g><g transform="translate(27.46,302.04) scale(1.373) rotate(0)"><path d="M10 0H20L0 20V10L10 0Z" fill="#f4c2c9"/><path d="M20 10V20H10L20 10Z" fill="#f4c2c9"/></g><g transform="translate(54.92,274.58) scale(2.746) rotate(0)"><path d="M10 0L20 10L10 20L0 10L10 0Z" fill="#6d9e99"/></g><circle cx="137.29" cy="302.03999999999996" r="27.46" fill="#f4c2c9"/><g transform="translate(164.75,274.58) scale(2.746) rotate(0)"><path d="M10 0H20L0 20V10L10 0Z" fill="#ffffff"/><path d="M20 10V20H10L20 10Z" fill="#ffffff"/></g><g transform="translate(219.67,274.58) scale(2.746) rotate(0)"><path d="M10 0H20V10L10 20H0V10L10 0Z" fill="#ffffff"/></g><g transform="translate(274.58,274.58) scale(2.746) rotate(0)"><path fill-rule="evenodd" clip-rule="evenodd" d="M10 20C15.5228 20 20 15.5228 20 10C20 4.47715 15.5228 0 10 0C4.47715 0 0 4.47715 0 10C0 15.5228 4.47715 20 10 20ZM10 17C13.866 17 17 13.866 17 10C17 6.13401 13.866 3 10 3C6.13401 3 3 6.13401 3 10C3 13.866 6.13401 17 10 17Z" fill="#6d9e99"/></g><rect x="0" y="329.5" width="54.916666666666664" height="54.916666666666664" fill="#fcf6ea"/><circle cx="13.73" cy="343.23" r="13.73" fill="#6d9e99"/><g transform="translate(27.46,329.5) scale(1.373) rotate(0)"><path d="M10 0L20 10L10 20L0 10L10 0Z" fill="#ffffff"/></g><g transform="translate(0,356.96) scale(1.373) rotate(0)"><path d="M10 0H20L0 20V10L10 0Z" fill="#ffffff"/><path d="M20 10V20H10L20 10Z" fill="#ffffff"/></g><g transform="translate(27.46,356.96) scale(1.373) rotate(0)"><path d="M10 0L20 10L10 20L0 10L10 0Z" fill="#ffe779"/></g><g transform="translate(54.92,329.5) scale(2.746) rotate(0)"><path d="M10 0L20 10L10 20L0 10L10 0Z" fill="#ffffff"/></g><g transform="translate(109.83,329.5) scale(2.746) rotate(0)"><path d="M10 0H20V10L10 20H0V10L10 0Z" fill="#ffffff"/></g><rect x="164.75" y="329.5" width="54.916666666666664" height="54.916666666666664" fill="#fcf6ea"/><g transform="translate(164.75,329.5) scale(1.373) rotate(0)"><path d="M10 0H20L0 20V10L10 0Z" fill="#f4c2c9"/><path d="M20 10V20H10L20 10Z" fill="#f4c2c9"/></g><g transform="translate(192.21,329.5) scale(1.373) rotate(0)"><path d="M10 0H20V10L10 20H0V10L10 0Z" fill="#ffe779"/></g><g transform="translate(164.75,356.96) scale(1.373) rotate(0)"><path d="M10 0H20V10L10 20H0V10L10 0Z" fill="#ffffff"/></g><g transform="translate(192.21,356.96) scale(1.373) rotate(0)"><path d="M10 0L20 10L10 20L0 10L10 0Z" fill="#ffffff"/></g><g transform="translate(219.67,329.5) scale(2.746) rotate(0)"><path fill-rule="evenodd" clip-rule="evenodd" d="M10 20C15.5228 20 20 15.5228 20 10C20 4.47715 15.5228 0 10 0C4.47715 0 0 4.47715 0 10C0 15.5228 4.47715 20 10 20ZM10 17C13.866 17 17 13.866 17 10C17 6.13401 13.866 3 10 3C6.13401 3 3 6.13401 3 10C3 13.866 6.13401 17 10 17Z" fill="#ffffff"/></g><circle cx="302.03999999999996" cy="356.96" r="27.46" fill="#ffffff"/><g transform="translate(0,384.42) scale(2.746) rotate(0)"><path d="M10 0H20V10L10 20H0V10L10 0Z" fill="#f4c2c9"/></g><g transform="translate(54.92,384.42) scale(2.746) rotate(0)"><path fill-rule="evenodd" clip-rule="evenodd" d="M10 20C15.5228 20 20 15.5228 20 10C20 4.47715 15.5228 0 10 0C4.47715 0 0 4.47715 0 10C0 15.5228 4.47715 20 10 20ZM10 17C13.866 17 17 13.866 17 10C17 6.13401 13.866 3 10 3C6.13401 3 3 6.13401 3 10C3 13.866 6.13401 17 10 17Z" fill="#ffffff"/></g><g transform="translate(109.83,384.42) scale(2.746) rotate(0)"><path fill-rule="evenodd" clip-rule="evenodd" d="M10 20C15.5228 20 20 15.5228 20 10C20 4.47715 15.5228 0 10 0C4.47715 0 0 4.47715 0 10C0 15.5228 4.47715 20 10 20ZM10 17C13.866 17 17 13.866 17 10C17 6.13401 13.866 3 10 3C6.13401 3 3 6.13401 3 10C3 13.866 6.13401 17 10 17Z" fill="#ffe779"/></g><rect x="164.75" y="384.41666666666663" width="54.916666666666664" height="54.916666666666664" fill="#fcf6ea"/><g transform="translate(164.75,384.42) scale(1.373) rotate(0)"><path fill-rule="evenodd" clip-rule="evenodd" d="M10 20C15.5228 20 20 15.5228 20 10C20 4.47715 15.5228 0 10 0C4.47715 0 0 4.47715 0 10C0 15.5228 4.47715 20 10 20ZM10 17C13.866 17 17 13.866 17 10C17 6.13401 13.866 3 10 3C6.13401 3 3 6.13401 3 10C3 13.866 6.13401 17 10 17Z" fill="#6d9e99"/></g><g transform="translate(192.21,384.42) scale(1.373) rotate(0)"><path d="M10 0H20L0 20V10L10 0Z" fill="#ffe779"/><path d="M20 10V20H10L20 10Z" fill="#ffe779"/></g><g transform="translate(164.75,411.87) scale(1.373) rotate(0)"><path d="M10 0H20L0 20V10L10 0Z" fill="#ffffff"/><path d="M20 10V20H10L20 10Z" fill="#ffffff"/></g><g transform="translate(192.21,411.87) scale(1.373) rotate(0)"><path fill-rule="evenodd" clip-rule="evenodd" d="M10 20C15.5228 20 20 15.5228 20 10C20 4.47715 15.5228 0 10 0C4.47715 0 0 4.47715 0 10C0 15.5228 4.47715 20 10 20ZM10 17C13.866 17 17 13.866 17 10C17 6.13401 13.866 3 10 3C6.13401 3 3 6.13401 3 10C3 13.866 6.13401 17 10 17Z" fill="#ffffff"/></g><circle cx="247.13" cy="411.88" r="27.46" fill="#ffe779"/><g transform="translate(274.58,384.42) scale(2.746) rotate(0)"><path fill-rule="evenodd" clip-rule="evenodd" d="M10 20C15.5228 20 20 15.5228 20 10C20 4.47715 15.5228 0 10 0C4.47715 0 0 4.47715 0 10C0 15.5228 4.47715 20 10 20ZM10 17C13.866 17 17 13.866 17 10C17 6.13401 13.866 3 10 3C6.13401 3 3 6.13401 3 10C3 13.866 6.13401 17 10 17Z" fill="#f4c2c9"/></g><g transform="translate(0,439.33) scale(2.746) rotate(0)"><path fill-rule="evenodd" clip-rule="evenodd" d="M10 20C15.5228 20 20 15.5228 20 10C20 4.47715 15.5228 0 10 0C4.47715 0 0 4.47715 0 10C0 15.5228 4.47715 20 10 20ZM10 17C13.866 17 17 13.866 17 10C17 6.13401 13.866 3 10 3C6.13401 3 3 6.13401 3 10C3 13.866 6.13401 17 10 17Z" fill="#ffe779"/></g><rect x="54.916666666666664" y="439.3333333333333" width="54.916666666666664" height="54.916666666666664" fill="#fcf6ea"/><g transform="translate(54.92,439.33) scale(1.373) rotate(0)"><path d="M10 0H20V10L10 20H0V10L10 0Z" fill="#f4c2c9"/></g><g transform="translate(82.38,439.33) scale(1.373) rotate(0)"><path d="M10 0H20L0 20V10L10 0Z" fill="#ffffff"/><path d="M20 10V20H10L20 10Z" fill="#ffffff"/></g><g transform="translate(54.92,466.79) scale(1.373) rotate(0)"><path d="M10 0H20L0 20V10L10 0Z" fill="#ffffff"/><path d="M20 10V20H10L20 10Z" fill="#ffffff"/></g><g transform="translate(82.38,466.79) scale(1.373) rotate(0)"><path d="M10 0L20 10L10 20L0 10L10 0Z" fill="#ffffff"/></g><g transform="translate(109.83,439.33) scale(2.746) rotate(0)"><path d="M10 0L20 10L10 20L0 10L10 0Z" fill="#f4c2c9"/></g><g transform="translate(164.75,439.33) scale(2.746) rotate(0)"><path d="M10 0L20 10L10 20L0 10L10 0Z" fill="#6d9e99"/></g><g transform="translate(219.67,439.33) scale(2.746) rotate(0)"><path d="M10 0H20V10L10 20H0V10L10 0Z" fill="#f4c2c9"/></g><g transform="translate(274.58,439.33) scale(2.746) rotate(0)"><path d="M10 0H20L0 20V10L10 0Z" fill="#f4c2c9"/><path d="M20 10V20H10L20 10Z" fill="#f4c2c9"/></g><g transform="translate(0,494.25) scale(2.746) rotate(0)"><path d="M10 0H20L0 20V10L10 0Z" fill="#6d9e99"/><path d="M20 10V20H10L20 10Z" fill="#6d9e99"/></g><rect x="54.916666666666664" y="494.25" width="54.916666666666664" height="54.916666666666664" fill="#fcf6ea"/><g transform="translate(54.92,494.25) scale(1.373) rotate(0)"><path d="M10 0H20L0 20V10L10 0Z" fill="#f4c2c9"/><path d="M20 10V20H10L20 10Z" fill="#f4c2c9"/></g><g transform="translate(82.38,494.25) scale(1.373) rotate(0)"><path fill-rule="evenodd" clip-rule="evenodd" d="M10 20C15.5228 20 20 15.5228 20 10C20 4.47715 15.5228 0 10 0C4.47715 0 0 4.47715 0 10C0 15.5228 4.47715 20 10 20ZM10 17C13.866 17 17 13.866 17 10C17 6.13401 13.866 3 10 3C6.13401 3 3 6.13401 3 10C3 13.866 6.13401 17 10 17Z" fill="#ffffff"/></g><circle cx="68.65" cy="535.44" r="13.73" fill="#ffe779"/><g transform="translate(82.38,521.71) scale(1.373) rotate(0)"><path d="M10 0L20 10L10 20L0 10L10 0Z" fill="#ffffff"/></g><g transform="translate(109.83,494.25) scale(2.746) rotate(0)"><path d="M10 0H20V10L10 20H0V10L10 0Z" fill="#f4c2c9"/></g><g transform="translate(164.75,494.25) scale(2.746) rotate(0)"><path fill-rule="evenodd" clip-rule="evenodd" d="M10 20C15.5228 20 20 15.5228 20 10C20 4.47715 15.5228 0 10 0C4.47715 0 0 4.47715 0 10C0 15.5228 4.47715 20 10 20ZM10 17C13.866 17 17 13.866 17 10C17 6.13401 13.866 3 10 3C6.13401 3 3 6.13401 3 10C3 13.866 6.13401 17 10 17Z" fill="#ffe779"/></g><rect x="219.66666666666666" y="494.25" width="54.916666666666664" height="54.916666666666664" fill="#fcf6ea"/><g transform="translate(219.67,494.25) scale(1.373) rotate(0)"><path fill-rule="evenodd" clip-rule="evenodd" d="M10 20C15.5228 20 20 15.5228 20 10C20 4.47715 15.5228 0 10 0C4.47715 0 0 4.47715 0 10C0 15.5228 4.47715 20 10 20ZM10 17C13.866 17 17 13.866 17 10C17 6.13401 13.866 3 10 3C6.13401 3 3 6.13401 3 10C3 13.866 6.13401 17 10 17Z" fill="#ffe779"/></g><g transform="translate(247.13,494.25) scale(1.373) rotate(0)"><path d="M10 0H20V10L10 20H0V10L10 0Z" fill="#ffe779"/></g><g transform="translate(219.67,521.71) scale(1.373) rotate(0)"><path d="M10 0L20 10L10 20L0 10L10 0Z" fill="#ffffff"/></g><g transform="translate(247.13,521.71) scale(1.373) rotate(0)"><path d="M10 0H20V10L10 20H0V10L10 0Z" fill="#6d9e99"/></g><g transform="translate(274.58,494.25) scale(2.746) rotate(0)"><path fill-rule="evenodd" clip-rule="evenodd" d="M10 20C15.5228 20 20 15.5228 20 10C20 4.47715 15.5228 0 10 0C4.47715 0 0 4.47715 0 10C0 15.5228 4.47715 20 10 20ZM10 17C13.866 17 17 13.866 17 10C17 6.13401 13.866 3 10 3C6.13401 3 3 6.13401 3 10C3 13.866 6.13401 17 10 17Z" fill="#6d9e99"/></g><circle cx="27.46" cy="576.63" r="27.46" fill="#6d9e99"/><circle cx="82.38" cy="576.63" r="27.46" fill="#ffffff"/><circle cx="137.29" cy="576.63" r="27.46" fill="#ffe779"/><g transform="translate(164.75,549.17) scale(2.746) rotate(0)"><path fill-rule="evenodd" clip-rule="evenodd" d="M10 20C15.5228 20 20 15.5228 20 10C20 4.47715 15.5228 0 10 0C4.47715 0 0 4.47715 0 10C0 15.5228 4.47715 20 10 20ZM10 17C13.866 17 17 13.866 17 10C17 6.13401 13.866 3 10 3C6.13401 3 3 6.13401 3 10C3 13.866 6.13401 17 10 17Z" fill="#ffffff"/></g><circle cx="247.13" cy="576.63" r="27.46" fill="#f4c2c9"/><circle cx="302.03999999999996" cy="576.63" r="27.46" fill="#ffffff"/><g transform="translate(0,604.08) scale(2.746) rotate(0)"><path d="M10 0H20L0 20V10L10 0Z" fill="#ffe779"/><path d="M20 10V20H10L20 10Z" fill="#ffe779"/></g><circle cx="82.38" cy="631.5400000000001" r="27.46" fill="#f4c2c9"/><rect x="109.83333333333333" y="604.0833333333333" width="54.916666666666664" height="54.916666666666664" fill="#fcf6ea"/><g transform="translate(109.83,604.08) scale(1.373) rotate(0)"><path d="M10 0H20L0 20V10L10 0Z" fill="#ffffff"/><path d="M20 10V20H10L20 10Z" fill="#ffffff"/></g><circle cx="151.01999999999998" cy="617.8100000000001" r="13.73" fill="#ffffff"/><g transform="translate(109.83,631.54) scale(1.373) rotate(0)"><path fill-rule="evenodd" clip-rule="evenodd" d="M10 20C15.5228 20 20 15.5228 20 10C20 4.47715 15.5228 0 10 0C4.47715 0 0 4.47715 0 10C0 15.5228 4.47715 20 10 20ZM10 17C13.866 17 17 13.866 17 10C17 6.13401 13.866 3 10 3C6.13401 3 3 6.13401 3 10C3 13.866 6.13401 17 10 17Z" fill="#ffe779"/></g><g transform="translate(137.29,631.54) scale(1.373) rotate(0)"><path d="M10 0H20L0 20V10L10 0Z" fill="#6d9e99"/><path d="M20 10V20H10L20 10Z" fill="#6d9e99"/></g><g transform="translate(164.75,604.08) scale(2.746) rotate(0)"><path d="M10 0H20L0 20V10L10 0Z" fill="#6d9e99"/><path d="M20 10V20H10L20 10Z" fill="#6d9e99"/></g><g transform="translate(219.67,604.08) scale(2.746) rotate(0)"><path d="M10 0L20 10L10 20L0 10L10 0Z" fill="#ffe779"/></g><rect x="274.5833333333333" y="604.0833333333333" width="54.916666666666664" height="54.916666666666664" fill="#fcf6ea"/><g transform="translate(274.58,604.08) scale(1.373) rotate(0)"><path d="M10 0L20 10L10 20L0 10L10 0Z" fill="#ffffff"/></g><g transform="translate(302.04,604.08) scale(1.373) rotate(0)"><path d="M10 0L20 10L10 20L0 10L10 0Z" fill="#f4c2c9"/></g><g transform="translate(274.58,631.54) scale(1.373) rotate(0)"><path d="M10 0H20V10L10 20H0V10L10 0Z" fill="#f4c2c9"/></g><circle cx="315.77000000000004" cy="645.27" r="13.73" fill="#ffffff"/></g></svg>