<?xml version="1.0" standalone="no"?><svg xmlns:xlink="http://www.w3.org/1999/xlink" xmlns="http://www.w3.org/2000/svg" viewBox="0 0 2000 500.00000000000006" preserveAspectRatio="xMaxYMax slice"><g transform="scale(1.3245033112582782)"><rect x="0" y="0" width="1510" height="377.5" fill="#fcf6ea"/><rect x="0" y="0" width="75.5" height="75.5" fill="#fcf6ea"/><circle cx="18.875" cy="18.875" r="18.875" fill="#ffffff"/><circle cx="56.625" cy="18.875" r="18.875" fill="#ffe779"/><g transform="translate(0,37.75) scale(1.8875) rotate(0)"><path d="M10 0H20L0 20V10L10 0Z" fill="#63737a"/><path d="M20 10V20H10L20 10Z" fill="#63737a"/></g><circle cx="56.625" cy="56.625" r="18.875" fill="#63737a"/><rect x="75.5" y="0" width="75.5" height="75.5" fill="#fcf6ea"/><g transform="translate(75.5,0) scale(1.8875) rotate(0)"><path d="M10 0H20L0 20V10L10 0Z" fill="#ffe779"/><path d="M20 10V20H10L20 10Z" fill="#ffe779"/></g><g transform="translate(113.25,0) scale(1.8875) rotate(0)"><path fill-rule="evenodd" clip-rule="evenodd" d="M10 20C15.5228 20 20 15.5228 20 10C20 4.47715 15.5228 0 10 0C4.47715 0 0 4.47715 0 10C0 15.5228 4.47715 20 10 20ZM10 17C13.866 17 17 13.866 17 10C17 6.13401 13.866 3 10 3C6.13401 3 3 6.13401 3 10C3 13.866 6.13401 17 10 17Z" fill="#ffe779"/></g><g transform="translate(75.5,37.75) scale(1.8875) rotate(0)"><path d="M10 0L20 10L10 20L0 10L10 0Z" fill="#63737a"/></g><g transform="translate(113.25,37.75) scale(1.8875) rotate(0)"><path d="M10 0H20L0 20V10L10 0Z" fill="#63737a"/><path d="M20 10V20H10L20 10Z" fill="#63737a"/></g><g transform="translate(151,0) scale(3.775) rotate(0)"><path d="M10 0H20L0 20V10L10 0Z" fill="#63737a"/><path d="M20 10V20H10L20 10Z" fill="#63737a"/></g><g transform="translate(226.5,0) scale(3.775) rotate(0)"><path d="M10 0H20L0 20V10L10 0Z" fill="#ffffff"/><path d="M20 10V20H10L20 10Z" fill="#ffffff"/></g><g transform="translate(302,0) scale(3.775) rotate(0)"><path d="M10 0L20 10L10 20L0 10L10 0Z" fill="#ffe779"/></g><g transform="translate(377.5,0) scale(3.775) rotate(0)"><path d="M10 0H20V10L10 20H0V10L10 0Z" fill="#63737a"/></g><g transform="translate(453,0) scale(3.775) rotate(0)"><path d="M10 0H20L0 20V10L10 0Z" fill="#ffe779"/><path d="M20 10V20H10L20 10Z" fill="#ffe779"/></g><rect x="528.5" y="0" width="75.5" height="75.5" fill="#fcf6ea"/><g transform="translate(528.5,0) scale(1.8875) rotate(0)"><path d="M10 0L20 10L10 20L0 10L10 0Z" fill="#ffffff"/></g><g transform="translate(566.25,0) scale(1.8875) rotate(0)"><path d="M10 0H20L0 20V10L10 0Z" fill="#ffe779"/><path d="M20 10V20H10L20 10Z" fill="#ffe779"/></g><g transform="translate(528.5,37.75) scale(1.8875) rotate(0)"><path d="M10 0H20L0 20V10L10 0Z" fill="#ffffff"/><path d="M20 10V20H10L20 10Z" fill="#ffffff"/></g><g transform="translate(566.25,37.75) scale(1.8875) rotate(0)"><path fill-rule="evenodd" clip-rule="evenodd" d="M10 20C15.5228 20 20 15.5228 20 10C20 4.47715 15.5228 0 10 0C4.47715 0 0 4.47715 0 10C0 15.5228 4.47715 20 10 20ZM10 17C13.866 17 17 13.866 17 10C17 6.13401 13.866 3 10 3C6.13401 3 3 6.13401 3 10C3 13.866 6.13401 17 10 17Z" fill="#ffe779"/></g><g transform="translate(604,0) scale(3.775) rotate(0)"><path d="M10 0L20 10L10 20L0 10L10 0Z" fill="#6d9e99"/></g><g transform="translate(679.5,0) scale(3.775) rotate(0)"><path d="M10 0H20L0 20V10L10 0Z" fill="#ffffff"/><path d="M20 10V20H10L20 10Z" fill="#ffffff"/></g><rect x="755" y="0" width="75.5" height="75.5" fill="#fcf6ea"/><g transform="translate(755,0) scale(1.8875) rotate(0)"><path fill-rule="evenodd" clip-rule="evenodd" d="M10 20C15.5228 20 20 15.5228 20 10C20 4.47715 15.5228 0 10 0C4.47715 0 0 4.47715 0 10C0 15.5228 4.47715 20 10 20ZM10 17C13.866 17 17 13.866 17 10C17 6.13401 13.866 3 10 3C6.13401 3 3 6.13401 3 10C3 13.866 6.13401 17 10 17Z" fill="#ffffff"/></g><g transform="translate(792.75,0) scale(1.8875) rotate(0)"><path d="M10 0H20V10L10 20H0V10L10 0Z" fill="#63737a"/></g><g transform="translate(755,37.75) scale(1.8875) rotate(0)"><path fill-rule="evenodd" clip-rule="evenodd" d="M10 20C15.5228 20 20 15.5228 20 10C20 4.47715 15.5228 0 10 0C4.47715 0 0 4.47715 0 10C0 15.5228 4.47715 20 10 20ZM10 17C13.866 17 17 13.866 17 10C17 6.13401 13.866 3 10 3C6.13401 3 3 6.13401 3 10C3 13.866 6.13401 17 10 17Z" fill="#ffe779"/></g><g transform="translate(792.75,37.75) scale(1.8875) rotate(0)"><path d="M10 0H20L0 20V10L10 0Z" fill="#6d9e99"/><path d="M20 10V20H10L20 10Z" fill="#6d9e99"/></g><g transform="translate(830.5,0) scale(3.775) rotate(0)"><path d="M10 0H20L0 20V10L10 0Z" fill="#6d9e99"/><path d="M20 10V20H10L20 10Z" fill="#6d9e99"/></g><rect x="906" y="0" width="75.5" height="75.5" fill="#fcf6ea"/><g transform="translate(906,0) scale(1.8875) rotate(0)"><path d="M10 0L20 10L10 20L0 10L10 0Z" fill="#ffe779"/></g><g transform="translate(943.75,0) scale(1.8875) rotate(0)"><path d="M10 0H20V10L10 20H0V10L10 0Z" fill="#6d9e99"/></g><g transform="translate(906,37.75) scale(1.8875) rotate(0)"><path d="M10 0L20 10L10 20L0 10L10 0Z" fill="#ffe779"/></g><circle cx="962.625" cy="56.625" r="18.875" fill="#ffffff"/><g transform="translate(981.5,0) scale(3.775) rotate(0)"><path d="M10 0H20L0 20V10L10 0Z" fill="#63737a"/><path d="M20 10V20H10L20 10Z" fill="#63737a"/></g><g transform="translate(1057,0) scale(3.775) rotate(0)"><path d="M10 0H20V10L10 20H0V10L10 0Z" fill="#6d9e99"/></g><g transform="translate(1132.5,0) scale(3.775) rotate(0)"><path d="M10 0L20 10L10 20L0 10L10 0Z" fill="#ffe779"/></g><g transform="translate(1208,0) scale(3.775) rotate(0)"><path d="M10 0H20L0 20V10L10 0Z" fill="#ffffff"/><path d="M20 10V20H10L20 10Z" fill="#ffffff"/></g><rect x="1283.5" y="0" width="75.5" height="75.5" fill="#fcf6ea"/><g transform="translate(1283.5,0) scale(1.8875) rotate(0)"><path d="M10 0H20L0 20V10L10 0Z" fill="#6d9e99"/><path d="M20 10V20H10L20 10Z" fill="#6d9e99"/></g><g transform="translate(1321.25,0) scale(1.8875) rotate(0)"><path d="M10 0H20V10L10 20H0V10L10 0Z" fill="#6d9e99"/></g><g transform="translate(1283.5,37.75) scale(1.8875) rotate(0)"><path fill-rule="evenodd" clip-rule="evenodd" d="M10 20C15.5228 20 20 15.5228 20 10C20 4.47715 15.5228 0 10 0C4.47715 0 0 4.47715 0 10C0 15.5228 4.47715 20 10 20ZM10 17C13.866 17 17 13.866 17 10C17 6.13401 13.866 3 10 3C6.13401 3 3 6.13401 3 10C3 13.866 6.13401 17 10 17Z" fill="#ffe779"/></g><g transform="translate(1321.25,37.75) scale(1.8875) rotate(0)"><path d="M10 0L20 10L10 20L0 10L10 0Z" fill="#ffffff"/></g><circle cx="1396.75" cy="37.75" r="37.75" fill="#ffffff"/><g transform="translate(1434.5,0) scale(3.775) rotate(0)"><path d="M10 0H20V10L10 20H0V10L10 0Z" fill="#6d9e99"/></g><rect x="0" y="75.5" width="75.5" height="75.5" fill="#fcf6ea"/><g transform="translate(0,75.5) scale(1.8875) rotate(0)"><path fill-rule="evenodd" clip-rule="evenodd" d="M10 20C15.5228 20 20 15.5228 20 10C20 4.47715 15.5228 0 10 0C4.47715 0 0 4.47715 0 10C0 15.5228 4.47715 20 10 20ZM10 17C13.866 17 17 13.866 17 10C17 6.13401 13.866 3 10 3C6.13401 3 3 6.13401 3 10C3 13.866 6.13401 17 10 17Z" fill="#ffe779"/></g><g transform="translate(37.75,75.5) scale(1.8875) rotate(0)"><path d="M10 0H20L0 20V10L10 0Z" fill="#63737a"/><path d="M20 10V20H10L20 10Z" fill="#63737a"/></g><g transform="translate(0,113.25) scale(1.8875) rotate(0)"><path fill-rule="evenodd" clip-rule="evenodd" d="M10 20C15.5228 20 20 15.5228 20 10C20 4.47715 15.5228 0 10 0C4.47715 0 0 4.47715 0 10C0 15.5228 4.47715 20 10 20ZM10 17C13.866 17 17 13.866 17 10C17 6.13401 13.866 3 10 3C6.13401 3 3 6.13401 3 10C3 13.866 6.13401 17 10 17Z" fill="#63737a"/></g><circle cx="56.625" cy="132.125" r="18.875" fill="#ffffff"/><g transform="translate(75.5,75.5) scale(3.775) rotate(0)"><path d="M10 0L20 10L10 20L0 10L10 0Z" fill="#63737a"/></g><g transform="translate(151,75.5) scale(3.775) rotate(0)"><path fill-rule="evenodd" clip-rule="evenodd" d="M10 20C15.5228 20 20 15.5228 20 10C20 4.47715 15.5228 0 10 0C4.47715 0 0 4.47715 0 10C0 15.5228 4.47715 20 10 20ZM10 17C13.866 17 17 13.866 17 10C17 6.13401 13.866 3 10 3C6.13401 3 3 6.13401 3 10C3 13.866 6.13401 17 10 17Z" fill="#6d9e99"/></g><rect x="226.5" y="75.5" width="75.5" height="75.5" fill="#fcf6ea"/><g transform="translate(226.5,75.5) scale(1.8875) rotate(0)"><path fill-rule="evenodd" clip-rule="evenodd" d="M10 20C15.5228 20 20 15.5228 20 10C20 4.47715 15.5228 0 10 0C4.47715 0 0 4.47715 0 10C0 15.5228 4.47715 20 10 20ZM10 17C13.866 17 17 13.866 17 10C17 6.13401 13.866 3 10 3C6.13401 3 3 6.13401 3 10C3 13.866 6.13401 17 10 17Z" fill="#ffffff"/></g><g transform="translate(264.25,75.5) scale(1.8875) rotate(0)"><path d="M10 0L20 10L10 20L0 10L10 0Z" fill="#6d9e99"/></g><g transform="translate(226.5,113.25) scale(1.8875) rotate(0)"><path d="M10 0H20V10L10 20H0V10L10 0Z" fill="#6d9e99"/></g><g transform="translate(264.25,113.25) scale(1.8875) rotate(0)"><path d="M10 0H20L0 20V10L10 0Z" fill="#63737a"/><path d="M20 10V20H10L20 10Z" fill="#63737a"/></g><g transform="translate(302,75.5) scale(3.775) rotate(0)"><path d="M10 0H20V10L10 20H0V10L10 0Z" fill="#ffffff"/></g><circle cx="415.25" cy="113.25" r="37.75" fill="#6d9e99"/><g transform="translate(453,75.5) scale(3.775) rotate(0)"><path fill-rule="evenodd" clip-rule="evenodd" d="M10 20C15.5228 20 20 15.5228 20 10C20 4.47715 15.5228 0 10 0C4.47715 0 0 4.47715 0 10C0 15.5228 4.47715 20 10 20ZM10 17C13.866 17 17 13.866 17 10C17 6.13401 13.866 3 10 3C6.13401 3 3 6.13401 3 10C3 13.866 6.13401 17 10 17Z" fill="#63737a"/></g><rect x="528.5" y="75.5" width="75.5" height="75.5" fill="#fcf6ea"/><circle cx="547.375" cy="94.375" r="18.875" fill="#ffffff"/><g transform="translate(566.25,75.5) scale(1.8875) rotate(0)"><path fill-rule="evenodd" clip-rule="evenodd" d="M10 20C15.5228 20 20 15.5228 20 10C20 4.47715 15.5228 0 10 0C4.47715 0 0 4.47715 0 10C0 15.5228 4.47715 20 10 20ZM10 17C13.866 17 17 13.866 17 10C17 6.13401 13.866 3 10 3C6.13401 3 3 6.13401 3 10C3 13.866 6.13401 17 10 17Z" fill="#63737a"/></g><g transform="translate(528.5,113.25) scale(1.8875) rotate(0)"><path d="M10 0H20V10L10 20H0V10L10 0Z" fill="#63737a"/></g><g transform="translate(566.25,113.25) scale(1.8875) rotate(0)"><path d="M10 0H20V10L10 20H0V10L10 0Z" fill="#63737a"/></g><g transform="translate(604,75.5) scale(3.775) rotate(0)"><path d="M10 0H20L0 20V10L10 0Z" fill="#63737a"/><path d="M20 10V20H10L20 10Z" fill="#63737a"/></g><g transform="translate(679.5,75.5) scale(3.775) rotate(0)"><path d="M10 0H20L0 20V10L10 0Z" fill="#ffe779"/><path d="M20 10V20H10L20 10Z" fill="#ffe779"/></g><g transform="translate(755,75.5) scale(3.775) rotate(0)"><path d="M10 0L20 10L10 20L0 10L10 0Z" fill="#ffffff"/></g><rect x="830.5" y="75.5" width="75.5" height="75.5" fill="#fcf6ea"/><g transform="translate(830.5,75.5) scale(1.8875) rotate(0)"><path d="M10 0L20 10L10 20L0 10L10 0Z" fill="#ffe779"/></g><g transform="translate(868.25,75.5) scale(1.8875) rotate(0)"><path d="M10 0H20L0 20V10L10 0Z" fill="#63737a"/><path d="M20 10V20H10L20 10Z" fill="#63737a"/></g><circle cx="849.375" cy="132.125" r="18.875" fill="#63737a"/><circle cx="887.125" cy="132.125" r="18.875" fill="#ffe779"/><g transform="translate(906,75.5) scale(3.775) rotate(0)"><path d="M10 0H20L0 20V10L10 0Z" fill="#63737a"/><path d="M20 10V20H10L20 10Z" fill="#63737a"/></g><g transform="translate(981.5,75.5) scale(3.775) rotate(0)"><path d="M10 0H20L0 20V10L10 0Z" fill="#ffffff"/><path d="M20 10V20H10L20 10Z" fill="#ffffff"/></g><g transform="translate(1057,75.5) scale(3.775) rotate(0)"><path d="M10 0H20V10L10 20H0V10L10 0Z" fill="#ffffff"/></g><g transform="translate(1132.5,75.5) scale(3.775) rotate(0)"><path d="M10 0H20V10L10 20H0V10L10 0Z" fill="#63737a"/></g><rect x="1208" y="75.5" width="75.5" height="75.5" fill="#fcf6ea"/><g transform="translate(1208,75.5) scale(1.8875) rotate(0)"><path d="M10 0H20V10L10 20H0V10L10 0Z" fill="#63737a"/></g><g transform="translate(1245.75,75.5) scale(1.8875) rotate(0)"><path d="M10 0L20 10L10 20L0 10L10 0Z" fill="#63737a"/></g><g transform="translate(1208,113.25) scale(1.8875) rotate(0)"><path d="M10 0H20V10L10 20H0V10L10 0Z" fill="#ffffff"/></g><g transform="translate(1245.75,113.25) scale(1.8875) rotate(0)"><path fill-rule="evenodd" clip-rule="evenodd" d="M10 20C15.5228 20 20 15.5228 20 10C20 4.47715 15.5228 0 10 0C4.47715 0 0 4.47715 0 10C0 15.5228 4.47715 20 10 20ZM10 17C13.866 17 17 13.866 17 10C17 6.13401 13.866 3 10 3C6.13401 3 3 6.13401 3 10C3 13.866 6.13401 17 10 17Z" fill="#ffffff"/></g><g transform="translate(1283.5,75.5) scale(3.775) rotate(0)"><path d="M10 0H20L0 20V10L10 0Z" fill="#6d9e99"/><path d="M20 10V20H10L20 10Z" fill="#6d9e99"/></g><circle cx="1396.75" cy="113.25" r="37.75" fill="#ffe779"/><g transform="translate(1434.5,75.5) scale(3.775) rotate(0)"><path d="M10 0L20 10L10 20L0 10L10 0Z" fill="#63737a"/></g><g transform="translate(0,151) scale(3.775) rotate(0)"><path d="M10 0H20V10L10 20H0V10L10 0Z" fill="#ffffff"/></g><g transform="translate(75.5,151) scale(3.775) rotate(0)"><path fill-rule="evenodd" clip-rule="evenodd" d="M10 20C15.5228 20 20 15.5228 20 10C20 4.47715 15.5228 0 10 0C4.47715 0 0 4.47715 0 10C0 15.5228 4.47715 20 10 20ZM10 17C13.866 17 17 13.866 17 10C17 6.13401 13.866 3 10 3C6.13401 3 3 6.13401 3 10C3 13.866 6.13401 17 10 17Z" fill="#63737a"/></g><g transform="translate(151,151) scale(3.775) rotate(0)"><path d="M10 0H20V10L10 20H0V10L10 0Z" fill="#ffe779"/></g><g transform="translate(226.5,151) scale(3.775) rotate(0)"><path fill-rule="evenodd" clip-rule="evenodd" d="M10 20C15.5228 20 20 15.5228 20 10C20 4.47715 15.5228 0 10 0C4.47715 0 0 4.47715 0 10C0 15.5228 4.47715 20 10 20ZM10 17C13.866 17 17 13.866 17 10C17 6.13401 13.866 3 10 3C6.13401 3 3 6.13401 3 10C3 13.866 6.13401 17 10 17Z" fill="#ffffff"/></g><circle cx="339.75" cy="188.75" r="37.75" fill="#ffe779"/><rect x="377.5" y="151" width="75.5" height="75.5" fill="#fcf6ea"/><g transform="translate(377.5,151) scale(1.8875) rotate(0)"><path d="M10 0L20 10L10 20L0 10L10 0Z" fill="#ffffff"/></g><g transform="translate(415.25,151) scale(1.8875) rotate(0)"><path d="M10 0H20L0 20V10L10 0Z" fill="#ffffff"/><path d="M20 10V20H10L20 10Z" fill="#ffffff"/></g><g transform="translate(377.5,188.75) scale(1.8875) rotate(0)"><path d="M10 0H20L0 20V10L10 0Z" fill="#63737a"/><path d="M20 10V20H10L20 10Z" fill="#63737a"/></g><g transform="translate(415.25,188.75) scale(1.8875) rotate(0)"><path fill-rule="evenodd" clip-rule="evenodd" d="M10 20C15.5228 20 20 15.5228 20 10C20 4.47715 15.5228 0 10 0C4.47715 0 0 4.47715 0 10C0 15.5228 4.47715 20 10 20ZM10 17C13.866 17 17 13.866 17 10C17 6.13401 13.866 3 10 3C6.13401 3 3 6.13401 3 10C3 13.866 6.13401 17 10 17Z" fill="#ffe779"/></g><rect x="453" y="151" width="75.5" height="75.5" fill="#fcf6ea"/><g transform="translate(453,151) scale(1.8875) rotate(0)"><path fill-rule="evenodd" clip-rule="evenodd" d="M10 20C15.5228 20 20 15.5228 20 10C20 4.47715 15.5228 0 10 0C4.47715 0 0 4.47715 0 10C0 15.5228 4.47715 20 10 20ZM10 17C13.866 17 17 13.866 17 10C17 6.13401 13.866 3 10 3C6.13401 3 3 6.13401 3 10C3 13.866 6.13401 17 10 17Z" fill="#ffffff"/></g><g transform="translate(490.75,151) scale(1.8875) rotate(0)"><path fill-rule="evenodd" clip-rule="evenodd" d="M10 20C15.5228 20 20 15.5228 20 10C20 4.47715 15.5228 0 10 0C4.47715 0 0 4.47715 0 10C0 15.5228 4.47715 20 10 20ZM10 17C13.866 17 17 13.866 17 10C17 6.13401 13.866 3 10 3C6.13401 3 3 6.13401 3 10C3 13.866 6.13401 17 10 17Z" fill="#63737a"/></g><g transform="translate(453,188.75) scale(1.8875) rotate(0)"><path d="M10 0L20 10L10 20L0 10L10 0Z" fill="#6d9e99"/></g><g transform="translate(490.75,188.75) scale(1.8875) rotate(0)"><path d="M10 0H20V10L10 20H0V10L10 0Z" fill="#63737a"/></g><g transform="translate(528.5,151) scale(3.775) rotate(0)"><path d="M10 0H20L0 20V10L10 0Z" fill="#ffffff"/><path d="M20 10V20H10L20 10Z" fill="#ffffff"/></g><circle cx="641.75" cy="188.75" r="37.75" fill="#ffe779"/><g transform="translate(679.5,151) scale(3.775) rotate(0)"><path d="M10 0H20L0 20V10L10 0Z" fill="#6d9e99"/><path d="M20 10V20H10L20 10Z" fill="#6d9e99"/></g><g transform="translate(755,151) scale(3.775) rotate(0)"><path d="M10 0H20V10L10 20H0V10L10 0Z" fill="#63737a"/></g><g transform="translate(830.5,151) scale(3.775) rotate(0)"><path fill-rule="evenodd" clip-rule="evenodd" d="M10 20C15.5228 20 20 15.5228 20 10C20 4.47715 15.5228 0 10 0C4.47715 0 0 4.47715 0 10C0 15.5228 4.47715 20 10 20ZM10 17C13.866 17 17 13.866 17 10C17 6.13401 13.866 3 10 3C6.13401 3 3 6.13401 3 10C3 13.866 6.13401 17 10 17Z" fill="#6d9e99"/></g><g transform="translate(906,151) scale(3.775) rotate(0)"><path d="M10 0H20L0 20V10L10 0Z" fill="#ffe779"/><path d="M20 10V20H10L20 10Z" fill="#ffe779"/></g><rect x="981.5" y="151" width="75.5" height="75.5" fill="#fcf6ea"/><g transform="translate(981.5,151) scale(1.8875) rotate(0)"><path fill-rule="evenodd" clip-rule="evenodd" d="M10 20C15.5228 20 20 15.5228 20 10C20 4.47715 15.5228 0 10 0C4.47715 0 0 4.47715 0 10C0 15.5228 4.47715 20 10 20ZM10 17C13.866 17 17 13.866 17 10C17 6.13401 13.866 3 10 3C6.13401 3 3 6.13401 3 10C3 13.866 6.13401 17 10 17Z" fill="#6d9e99"/></g><g transform="translate(1019.25,151) scale(1.8875) rotate(0)"><path d="M10 0H20V10L10 20H0V10L10 0Z" fill="#63737a"/></g><g transform="translate(981.5,188.75) scale(1.8875) rotate(0)"><path d="M10 0H20V10L10 20H0V10L10 0Z" fill="#63737a"/></g><g transform="translate(1019.25,188.75) scale(1.8875) rotate(0)"><path d="M10 0H20L0 20V10L10 0Z" fill="#ffe779"/><path d="M20 10V20H10L20 10Z" fill="#ffe779"/></g><circle cx="1094.75" cy="188.75" r="37.75" fill="#ffffff"/><rect x="1132.5" y="151" width="75.5" height="75.5" fill="#fcf6ea"/><g transform="translate(1132.5,151) scale(1.8875) rotate(0)"><path d="M10 0H20L0 20V10L10 0Z" fill="#ffe779"/><path d="M20 10V20H10L20 10Z" fill="#ffe779"/></g><circle cx="1189.125" cy="169.875" r="18.875" fill="#ffe779"/><g transform="translate(1132.5,188.75) scale(1.8875) rotate(0)"><path d="M10 0L20 10L10 20L0 10L10 0Z" fill="#6d9e99"/></g><g transform="translate(1170.25,188.75) scale(1.8875) rotate(0)"><path d="M10 0L20 10L10 20L0 10L10 0Z" fill="#ffffff"/></g><g transform="translate(1208,151) scale(3.775) rotate(0)"><path d="M10 0L20 10L10 20L0 10L10 0Z" fill="#63737a"/></g><g transform="translate(1283.5,151) scale(3.775) rotate(0)"><path d="M10 0H20V10L10 20H0V10L10 0Z" fill="#63737a"/></g><g transform="translate(1359,151) scale(3.775) rotate(0)"><path fill-rule="evenodd" clip-rule="evenodd" d="M10 20C15.5228 20 20 15.5228 20 10C20 4.47715 15.5228 0 10 0C4.47715 0 0 4.47715 0 10C0 15.5228 4.47715 20 10 20ZM10 17C13.866 17 17 13.866 17 10C17 6.13401 13.866 3 10 3C6.13401 3 3 6.13401 3 10C3 13.866 6.13401 17 10 17Z" fill="#6d9e99"/></g><g transform="translate(1434.5,151) scale(3.775) rotate(0)"><path fill-rule="evenodd" clip-rule="evenodd" d="M10 20C15.5228 20 20 15.5228 20 10C20 4.47715 15.5228 0 10 0C4.47715 0 0 4.47715 0 10C0 15.5228 4.47715 20 10 20ZM10 17C13.866 17 17 13.866 17 10C17 6.13401 13.866 3 10 3C6.13401 3 3 6.13401 3 10C3 13.866 6.13401 17 10 17Z" fill="#ffe779"/></g><g transform="translate(0,226.5) scale(3.775) rotate(0)"><path fill-rule="evenodd" clip-rule="evenodd" d="M10 20C15.5228 20 20 15.5228 20 10C20 4.47715 15.5228 0 10 0C4.47715 0 0 4.47715 0 10C0 15.5228 4.47715 20 10 20ZM10 17C13.866 17 17 13.866 17 10C17 6.13401 13.866 3 10 3C6.13401 3 3 6.13401 3 10C3 13.866 6.13401 17 10 17Z" fill="#ffe779"/></g><rect x="75.5" y="226.5" width="75.5" height="75.5" fill="#fcf6ea"/><g transform="translate(75.5,226.5) scale(1.8875) rotate(0)"><path d="M10 0H20V10L10 20H0V10L10 0Z" fill="#ffffff"/></g><g transform="translate(113.25,226.5) scale(1.8875) rotate(0)"><path fill-rule="evenodd" clip-rule="evenodd" d="M10 20C15.5228 20 20 15.5228 20 10C20 4.47715 15.5228 0 10 0C4.47715 0 0 4.47715 0 10C0 15.5228 4.47715 20 10 20ZM10 17C13.866 17 17 13.866 17 10C17 6.13401 13.866 3 10 3C6.13401 3 3 6.13401 3 10C3 13.866 6.13401 17 10 17Z" fill="#6d9e99"/></g><g transform="translate(75.5,264.25) scale(1.8875) rotate(0)"><path d="M10 0H20V10L10 20H0V10L10 0Z" fill="#6d9e99"/></g><circle cx="132.125" cy="283.125" r="18.875" fill="#ffe779"/><rect x="151" y="226.5" width="75.5" height="75.5" fill="#fcf6ea"/><circle cx="169.875" cy="245.375" r="18.875" fill="#ffe779"/><g transform="translate(188.75,226.5) scale(1.8875) rotate(0)"><path d="M10 0H20V10L10 20H0V10L10 0Z" fill="#ffe779"/></g><g transform="translate(151,264.25) scale(1.8875) rotate(0)"><path d="M10 0H20L0 20V10L10 0Z" fill="#63737a"/><path d="M20 10V20H10L20 10Z" fill="#63737a"/></g><g transform="translate(188.75,264.25) scale(1.8875) rotate(0)"><path d="M10 0H20L0 20V10L10 0Z" fill="#ffffff"/><path d="M20 10V20H10L20 10Z" fill="#ffffff"/></g><g transform="translate(226.5,226.5) scale(3.775) rotate(0)"><path d="M10 0L20 10L10 20L0 10L10 0Z" fill="#63737a"/></g><rect x="302" y="226.5" width="75.5" height="75.5" fill="#fcf6ea"/><g transform="translate(302,226.5) scale(1.8875) rotate(0)"><path d="M10 0L20 10L10 20L0 10L10 0Z" fill="#ffffff"/></g><circle cx="358.625" cy="245.375" r="18.875" fill="#ffffff"/><g transform="translate(302,264.25) scale(1.8875) rotate(0)"><path d="M10 0H20L0 20V10L10 0Z" fill="#6d9e99"/><path d="M20 10V20H10L20 10Z" fill="#6d9e99"/></g><circle cx="358.625" cy="283.125" r="18.875" fill="#ffffff"/><g transform="translate(377.5,226.5) scale(3.775) rotate(0)"><path d="M10 0L20 10L10 20L0 10L10 0Z" fill="#6d9e99"/></g><g transform="translate(453,226.5) scale(3.775) rotate(0)"><path d="M10 0L20 10L10 20L0 10L10 0Z" fill="#6d9e99"/></g><rect x="528.5" y="226.5" width="75.5" height="75.5" fill="#fcf6ea"/><g transform="translate(528.5,226.5) scale(1.8875) rotate(0)"><path d="M10 0H20L0 20V10L10 0Z" fill="#6d9e99"/><path d="M20 10V20H10L20 10Z" fill="#6d9e99"/></g><g transform="translate(566.25,226.5) scale(1.8875) rotate(0)"><path d="M10 0H20V10L10 20H0V10L10 0Z" fill="#ffe779"/></g><g transform="translate(528.5,264.25) scale(1.8875) rotate(0)"><path d="M10 0H20L0 20V10L10 0Z" fill="#63737a"/><path d="M20 10V20H10L20 10Z" fill="#63737a"/></g><g transform="translate(566.25,264.25) scale(1.8875) rotate(0)"><path fill-rule="evenodd" clip-rule="evenodd" d="M10 20C15.5228 20 20 15.5228 20 10C20 4.47715 15.5228 0 10 0C4.47715 0 0 4.47715 0 10C0 15.5228 4.47715 20 10 20ZM10 17C13.866 17 17 13.866 17 10C17 6.13401 13.866 3 10 3C6.13401 3 3 6.13401 3 10C3 13.866 6.13401 17 10 17Z" fill="#63737a"/></g><rect x="604" y="226.5" width="75.5" height="75.5" fill="#fcf6ea"/><circle cx="622.875" cy="245.375" r="18.875" fill="#ffe779"/><g transform="translate(641.75,226.5) scale(1.8875) rotate(0)"><path d="M10 0H20V10L10 20H0V10L10 0Z" fill="#63737a"/></g><g transform="translate(604,264.25) scale(1.8875) rotate(0)"><path d="M10 0H20V10L10 20H0V10L10 0Z" fill="#ffe779"/></g><g transform="translate(641.75,264.25) scale(1.8875) rotate(0)"><path fill-rule="evenodd" clip-rule="evenodd" d="M10 20C15.5228 20 20 15.5228 20 10C20 4.47715 15.5228 0 10 0C4.47715 0 0 4.47715 0 10C0 15.5228 4.47715 20 10 20ZM10 17C13.866 17 17 13.866 17 10C17 6.13401 13.866 3 10 3C6.13401 3 3 6.13401 3 10C3 13.866 6.13401 17 10 17Z" fill="#63737a"/></g><rect x="679.5" y="226.5" width="75.5" height="75.5" fill="#fcf6ea"/><g transform="translate(679.5,226.5) scale(1.8875) rotate(0)"><path fill-rule="evenodd" clip-rule="evenodd" d="M10 20C15.5228 20 20 15.5228 20 10C20 4.47715 15.5228 0 10 0C4.47715 0 0 4.47715 0 10C0 15.5228 4.47715 20 10 20ZM10 17C13.866 17 17 13.866 17 10C17 6.13401 13.866 3 10 3C6.13401 3 3 6.13401 3 10C3 13.866 6.13401 17 10 17Z" fill="#6d9e99"/></g><g transform="translate(717.25,226.5) scale(1.8875) rotate(0)"><path d="M10 0L20 10L10 20L0 10L10 0Z" fill="#ffffff"/></g><g transform="translate(679.5,264.25) scale(1.8875) rotate(0)"><path d="M10 0L20 10L10 20L0 10L10 0Z" fill="#63737a"/></g><g transform="translate(717.25,264.25) scale(1.8875) rotate(0)"><path d="M10 0H20V10L10 20H0V10L10 0Z" fill="#ffffff"/></g><g transform="translate(755,226.5) scale(3.775) rotate(0)"><path d="M10 0H20L0 20V10L10 0Z" fill="#ffe779"/><path d="M20 10V20H10L20 10Z" fill="#ffe779"/></g><rect x="830.5" y="226.5" width="75.5" height="75.5" fill="#fcf6ea"/><g transform="translate(830.5,226.5) scale(1.8875) rotate(0)"><path d="M10 0H20L0 20V10L10 0Z" fill="#63737a"/><path d="M20 10V20H10L20 10Z" fill="#63737a"/></g><g transform="translate(868.25,226.5) scale(1.8875) rotate(0)"><path d="M10 0H20V10L10 20H0V10L10 0Z" fill="#ffe779"/></g><g transform="translate(830.5,264.25) scale(1.8875) rotate(0)"><path fill-rule="evenodd" clip-rule="evenodd" d="M10 20C15.5228 20 20 15.5228 20 10C20 4.47715 15.5228 0 10 0C4.47715 0 0 4.47715 0 10C0 15.5228 4.47715 20 10 20ZM10 17C13.866 17 17 13.866 17 10C17 6.13401 13.866 3 10 3C6.13401 3 3 6.13401 3 10C3 13.866 6.13401 17 10 17Z" fill="#63737a"/></g><g transform="translate(868.25,264.25) scale(1.8875) rotate(0)"><path d="M10 0H20V10L10 20H0V10L10 0Z" fill="#63737a"/></g><g transform="translate(906,226.5) scale(3.775) rotate(0)"><path d="M10 0H20V10L10 20H0V10L10 0Z" fill="#ffe779"/></g><g transform="translate(981.5,226.5) scale(3.775) rotate(0)"><path fill-rule="evenodd" clip-rule="evenodd" d="M10 20C15.5228 20 20 15.5228 20 10C20 4.47715 15.5228 0 10 0C4.47715 0 0 4.47715 0 10C0 15.5228 4.47715 20 10 20ZM10 17C13.866 17 17 13.866 17 10C17 6.13401 13.866 3 10 3C6.13401 3 3 6.13401 3 10C3 13.866 6.13401 17 10 17Z" fill="#6d9e99"/></g><circle cx="1094.75" cy="264.25" r="37.75" fill="#ffe779"/><circle cx="1170.25" cy="264.25" r="37.75" fill="#ffe779"/><g transform="translate(1208,226.5) scale(3.775) rotate(0)"><path fill-rule="evenodd" clip-rule="evenodd" d="M10 20C15.5228 20 20 15.5228 20 10C20 4.47715 15.5228 0 10 0C4.47715 0 0 4.47715 0 10C0 15.5228 4.47715 20 10 20ZM10 17C13.866 17 17 13.866 17 10C17 6.13401 13.866 3 10 3C6.13401 3 3 6.13401 3 10C3 13.866 6.13401 17 10 17Z" fill="#ffffff"/></g><g transform="translate(1283.5,226.5) scale(3.775) rotate(0)"><path d="M10 0H20L0 20V10L10 0Z" fill="#ffffff"/><path d="M20 10V20H10L20 10Z" fill="#ffffff"/></g><g transform="translate(1359,226.5) scale(3.775) rotate(0)"><path d="M10 0H20V10L10 20H0V10L10 0Z" fill="#6d9e99"/></g><circle cx="1472.25" cy="264.25" r="37.75" fill="#ffffff"/><rect x="0" y="302" width="75.5" height="75.5" fill="#fcf6ea"/><g transform="translate(0,302) scale(1.8875) rotate(0)"><path d="M10 0L20 10L10 20L0 10L10 0Z" fill="#63737a"/></g><circle cx="56.625" cy="320.875" r="18.875" fill="#ffe779"/><g transform="translate(0,339.75) scale(1.8875) rotate(0)"><path d="M10 0H20L0 20V10L10 0Z" fill="#ffffff"/><path d="M20 10V20H10L20 10Z" fill="#ffffff"/></g><g transform="translate(37.75,339.75) scale(1.8875) rotate(0)"><path d="M10 0H20V10L10 20H0V10L10 0Z" fill="#ffffff"/></g><g transform="translate(75.5,302) scale(3.775) rotate(0)"><path fill-rule="evenodd" clip-rule="evenodd" d="M10 20C15.5228 20 20 15.5228 20 10C20 4.47715 15.5228 0 10 0C4.47715 0 0 4.47715 0 10C0 15.5228 4.47715 20 10 20ZM10 17C13.866 17 17 13.866 17 10C17 6.13401 13.866 3 10 3C6.13401 3 3 6.13401 3 10C3 13.866 6.13401 17 10 17Z" fill="#ffffff"/></g><g transform="translate(151,302) scale(3.775) rotate(0)"><path fill-rule="evenodd" clip-rule="evenodd" d="M10 20C15.5228 20 20 15.5228 20 10C20 4.47715 15.5228 0 10 0C4.47715 0 0 4.47715 0 10C0 15.5228 4.47715 20 10 20ZM10 17C13.866 17 17 13.866 17 10C17 6.13401 13.866 3 10 3C6.13401 3 3 6.13401 3 10C3 13.866 6.13401 17 10 17Z" fill="#ffffff"/></g><g transform="translate(226.5,302) scale(3.775) rotate(0)"><path d="M10 0H20L0 20V10L10 0Z" fill="#ffffff"/><path d="M20 10V20H10L20 10Z" fill="#ffffff"/></g><g transform="translate(302,302) scale(3.775) rotate(0)"><path d="M10 0H20V10L10 20H0V10L10 0Z" fill="#ffffff"/></g><g transform="translate(377.5,302) scale(3.775) rotate(0)"><path fill-rule="evenodd" clip-rule="evenodd" d="M10 20C15.5228 20 20 15.5228 20 10C20 4.47715 15.5228 0 10 0C4.47715 0 0 4.47715 0 10C0 15.5228 4.47715 20 10 20ZM10 17C13.866 17 17 13.866 17 10C17 6.13401 13.866 3 10 3C6.13401 3 3 6.13401 3 10C3 13.866 6.13401 17 10 17Z" fill="#63737a"/></g><rect x="453" y="302" width="75.5" height="75.5" fill="#fcf6ea"/><g transform="translate(453,302) scale(1.8875) rotate(0)"><path d="M10 0L20 10L10 20L0 10L10 0Z" fill="#63737a"/></g><g transform="translate(490.75,302) scale(1.8875) rotate(0)"><path fill-rule="evenodd" clip-rule="evenodd" d="M10 20C15.5228 20 20 15.5228 20 10C20 4.47715 15.5228 0 10 0C4.47715 0 0 4.47715 0 10C0 15.5228 4.47715 20 10 20ZM10 17C13.866 17 17 13.866 17 10C17 6.13401 13.866 3 10 3C6.13401 3 3 6.13401 3 10C3 13.866 6.13401 17 10 17Z" fill="#ffe779"/></g><g transform="translate(453,339.75) scale(1.8875) rotate(0)"><path d="M10 0L20 10L10 20L0 10L10 0Z" fill="#ffe779"/></g><g transform="translate(490.75,339.75) scale(1.8875) rotate(0)"><path d="M10 0H20L0 20V10L10 0Z" fill="#ffe779"/><path d="M20 10V20H10L20 10Z" fill="#ffe779"/></g><g transform="translate(528.5,302) scale(3.775) rotate(0)"><path fill-rule="evenodd" clip-rule="evenodd" d="M10 20C15.5228 20 20 15.5228 20 10C20 4.47715 15.5228 0 10 0C4.47715 0 0 4.47715 0 10C0 15.5228 4.47715 20 10 20ZM10 17C13.866 17 17 13.866 17 10C17 6.13401 13.866 3 10 3C6.13401 3 3 6.13401 3 10C3 13.866 6.13401 17 10 17Z" fill="#63737a"/></g><g transform="translate(604,302) scale(3.775) rotate(0)"><path d="M10 0H20L0 20V10L10 0Z" fill="#63737a"/><path d="M20 10V20H10L20 10Z" fill="#63737a"/></g><g transform="translate(679.5,302) scale(3.775) rotate(0)"><path fill-rule="evenodd" clip-rule="evenodd" d="M10 20C15.5228 20 20 15.5228 20 10C20 4.47715 15.5228 0 10 0C4.47715 0 0 4.47715 0 10C0 15.5228 4.47715 20 10 20ZM10 17C13.866 17 17 13.866 17 10C17 6.13401 13.866 3 10 3C6.13401 3 3 6.13401 3 10C3 13.866 6.13401 17 10 17Z" fill="#ffe779"/></g><rect x="755" y="302" width="75.5" height="75.5" fill="#fcf6ea"/><circle cx="773.875" cy="320.875" r="18.875" fill="#63737a"/><g transform="translate(792.75,302) scale(1.8875) rotate(0)"><path d="M10 0H20V10L10 20H0V10L10 0Z" fill="#63737a"/></g><circle cx="773.875" cy="358.625" r="18.875" fill="#ffffff"/><g transform="translate(792.75,339.75) scale(1.8875) rotate(0)"><path d="M10 0H20V10L10 20H0V10L10 0Z" fill="#ffffff"/></g><circle cx="868.25" cy="339.75" r="37.75" fill="#ffe779"/><rect x="906" y="302" width="75.5" height="75.5" fill="#fcf6ea"/><g transform="translate(906,302) scale(1.8875) rotate(0)"><path d="M10 0L20 10L10 20L0 10L10 0Z" fill="#6d9e99"/></g><g transform="translate(943.75,302) scale(1.8875) rotate(0)"><path d="M10 0H20L0 20V10L10 0Z" fill="#63737a"/><path d="M20 10V20H10L20 10Z" fill="#63737a"/></g><g transform="translate(906,339.75) scale(1.8875) rotate(0)"><path d="M10 0H20V10L10 20H0V10L10 0Z" fill="#ffffff"/></g><g transform="translate(943.75,339.75) scale(1.8875) rotate(0)"><path d="M10 0H20V10L10 20H0V10L10 0Z" fill="#ffe779"/></g><g transform="translate(981.5,302) scale(3.775) rotate(0)"><path d="M10 0H20V10L10 20H0V10L10 0Z" fill="#6d9e99"/></g><g transform="translate(1057,302) scale(3.775) rotate(0)"><path d="M10 0H20V10L10 20H0V10L10 0Z" fill="#ffffff"/></g><g transform="translate(1132.5,302) scale(3.775) rotate(0)"><path d="M10 0H20L0 20V10L10 0Z" fill="#ffffff"/><path d="M20 10V20H10L20 10Z" fill="#ffffff"/></g><g transform="translate(1208,302) scale(3.775) rotate(0)"><path d="M10 0H20L0 20V10L10 0Z" fill="#ffe779"/><path d="M20 10V20H10L20 10Z" fill="#ffe779"/></g><rect x="1283.5" y="302" width="75.5" height="75.5" fill="#fcf6ea"/><g transform="translate(1283.5,302) scale(1.8875) rotate(0)"><path d="M10 0H20L0 20V10L10 0Z" fill="#6d9e99"/><path d="M20 10V20H10L20 10Z" fill="#6d9e99"/></g><g transform="translate(1321.25,302) scale(1.8875) rotate(0)"><path d="M10 0H20L0 20V10L10 0Z" fill="#63737a"/><path d="M20 10V20H10L20 10Z" fill="#63737a"/></g><circle cx="1302.375" cy="358.625" r="18.875" fill="#63737a"/><circle cx="1340.125" cy="358.625" r="18.875" fill="#ffe779"/><g transform="translate(1359,302) scale(3.775) rotate(0)"><path d="M10 0H20L0 20V10L10 0Z" fill="#ffffff"/><path d="M20 10V20H10L20 10Z" fill="#ffffff"/></g><g transform="translate(1434.5,302) scale(3.775) rotate(0)"><path d="M10 0H20L0 20V10L10 0Z" fill="#ffffff"/><path d="M20 10V20H10L20 10Z" fill="#ffffff"/></g></g></svg>