<?xml version="1.0" standalone="no"?><svg xmlns:xlink="http://www.w3.org/1999/xlink" xmlns="http://www.w3.org/2000/svg" viewBox="0 0 2000 4000" preserveAspectRatio="xMaxYMax slice"><g transform="scale(6.644518272425249)"><rect x="0" y="0" width="301" height="602" fill="#fcf6ea"/><circle cx="25.085" cy="25.085" r="25.085" fill="#ffffff"/><g transform="translate(50.17,0) scale(2.5085) rotate(0)"><path d="M10 0L20 10L10 20L0 10L10 0Z" fill="#6d9e99"/></g><circle cx="125.41499999999999" cy="25.085" r="25.085" fill="#ffffff"/><g transform="translate(150.5,0) scale(2.5085) rotate(0)"><path d="M10 0H20L0 20V10L10 0Z" fill="#63737a"/><path d="M20 10V20H10L20 10Z" fill="#63737a"/></g><rect x="200.66666666666666" y="0" width="50.166666666666664" height="50.166666666666664" fill="#fcf6ea"/><g transform="translate(200.67,0) scale(1.254) rotate(0)"><path d="M10 0L20 10L10 20L0 10L10 0Z" fill="#ffffff"/></g><circle cx="238.29" cy="12.54" r="12.54" fill="#6d9e99"/><g transform="translate(200.67,25.08) scale(1.254) rotate(0)"><path d="M10 0H20V10L10 20H0V10L10 0Z" fill="#ffe779"/></g><g transform="translate(225.75,25.08) scale(1.254) rotate(0)"><path d="M10 0H20L0 20V10L10 0Z" fill="#ffe779"/><path d="M20 10V20H10L20 10Z" fill="#ffe779"/></g><rect x="250.83333333333331" y="0" width="50.166666666666664" height="50.166666666666664" fill="#fcf6ea"/><g transform="translate(250.83,0) scale(1.254) rotate(0)"><path d="M10 0H20L0 20V10L10 0Z" fill="#6d9e99"/><path d="M20 10V20H10L20 10Z" fill="#6d9e99"/></g><g transform="translate(275.92,0) scale(1.254) rotate(0)"><path d="M10 0L20 10L10 20L0 10L10 0Z" fill="#63737a"/></g><g transform="translate(250.83,25.08) scale(1.254) rotate(0)"><path d="M10 0H20V10L10 20H0V10L10 0Z" fill="#ffffff"/></g><g transform="translate(275.92,25.08) scale(1.254) rotate(0)"><path d="M10 0L20 10L10 20L0 10L10 0Z" fill="#ffe779"/></g><circle cx="25.085" cy="75.255" r="25.085" fill="#ffe779"/><circle cx="75.255" cy="75.255" r="25.085" fill="#63737a"/><g transform="translate(100.33,50.17) scale(2.5085) rotate(0)"><path d="M10 0H20L0 20V10L10 0Z" fill="#ffe779"/><path d="M20 10V20H10L20 10Z" fill="#ffe779"/></g><g transform="translate(150.5,50.17) scale(2.5085) rotate(0)"><path fill-rule="evenodd" clip-rule="evenodd" d="M10 20C15.5228 20 20 15.5228 20 10C20 4.47715 15.5228 0 10 0C4.47715 0 0 4.47715 0 10C0 15.5228 4.47715 20 10 20ZM10 17C13.866 17 17 13.866 17 10C17 6.13401 13.866 3 10 3C6.13401 3 3 6.13401 3 10C3 13.866 6.13401 17 10 17Z" fill="#ffe779"/></g><circle cx="225.755" cy="75.255" r="25.085" fill="#63737a"/><g transform="translate(250.83,50.17) scale(2.5085) rotate(0)"><path d="M10 0L20 10L10 20L0 10L10 0Z" fill="#ffffff"/></g><circle cx="25.085" cy="125.41499999999999" r="25.085" fill="#ffffff"/><g transform="translate(50.17,100.33) scale(2.5085) rotate(0)"><path d="M10 0L20 10L10 20L0 10L10 0Z" fill="#63737a"/></g><g transform="translate(100.33,100.33) scale(2.5085) rotate(0)"><path fill-rule="evenodd" clip-rule="evenodd" d="M10 20C15.5228 20 20 15.5228 20 10C20 4.47715 15.5228 0 10 0C4.47715 0 0 4.47715 0 10C0 15.5228 4.47715 20 10 20ZM10 17C13.866 17 17 13.866 17 10C17 6.13401 13.866 3 10 3C6.13401 3 3 6.13401 3 10C3 13.866 6.13401 17 10 17Z" fill="#6d9e99"/></g><g transform="translate(150.5,100.33) scale(2.5085) rotate(0)"><path d="M10 0H20L0 20V10L10 0Z" fill="#63737a"/><path d="M20 10V20H10L20 10Z" fill="#63737a"/></g><g transform="translate(200.67,100.33) scale(2.5085) rotate(0)"><path d="M10 0H20V10L10 20H0V10L10 0Z" fill="#63737a"/></g><g transform="translate(250.83,100.33) scale(2.5085) rotate(0)"><path d="M10 0H20V10L10 20H0V10L10 0Z" fill="#63737a"/></g><circle cx="25.085" cy="175.585" r="25.085" fill="#ffffff"/><g transform="translate(50.17,150.5) scale(2.5085) rotate(0)"><path d="M10 0H20L0 20V10L10 0Z" fill="#ffe779"/><path d="M20 10V20H10L20 10Z" fill="#ffe779"/></g><g transform="translate(100.33,150.5) scale(2.5085) rotate(0)"><path d="M10 0L20 10L10 20L0 10L10 0Z" fill="#ffe779"/></g><g transform="translate(150.5,150.5) scale(2.5085) rotate(0)"><path d="M10 0H20L0 20V10L10 0Z" fill="#63737a"/><path d="M20 10V20H10L20 10Z" fill="#63737a"/></g><g transform="translate(200.67,150.5) scale(2.5085) rotate(0)"><path fill-rule="evenodd" clip-rule="evenodd" d="M10 20C15.5228 20 20 15.5228 20 10C20 4.47715 15.5228 0 10 0C4.47715 0 0 4.47715 0 10C0 15.5228 4.47715 20 10 20ZM10 17C13.866 17 17 13.866 17 10C17 6.13401 13.866 3 10 3C6.13401 3 3 6.13401 3 10C3 13.866 6.13401 17 10 17Z" fill="#ffe779"/></g><circle cx="275.915" cy="175.585" r="25.085" fill="#ffe779"/><circle cx="25.085" cy="225.755" r="25.085" fill="#6d9e99"/><rect x="50.166666666666664" y="200.66666666666666" width="50.166666666666664" height="50.166666666666664" fill="#fcf6ea"/><g transform="translate(50.17,200.67) scale(1.254) rotate(0)"><path d="M10 0H20L0 20V10L10 0Z" fill="#ffffff"/><path d="M20 10V20H10L20 10Z" fill="#ffffff"/></g><g transform="translate(75.25,200.67) scale(1.254) rotate(0)"><path d="M10 0H20V10L10 20H0V10L10 0Z" fill="#63737a"/></g><g transform="translate(50.17,225.75) scale(1.254) rotate(0)"><path fill-rule="evenodd" clip-rule="evenodd" d="M10 20C15.5228 20 20 15.5228 20 10C20 4.47715 15.5228 0 10 0C4.47715 0 0 4.47715 0 10C0 15.5228 4.47715 20 10 20ZM10 17C13.866 17 17 13.866 17 10C17 6.13401 13.866 3 10 3C6.13401 3 3 6.13401 3 10C3 13.866 6.13401 17 10 17Z" fill="#63737a"/></g><g transform="translate(75.25,225.75) scale(1.254) rotate(0)"><path d="M10 0L20 10L10 20L0 10L10 0Z" fill="#6d9e99"/></g><g transform="translate(100.33,200.67) scale(2.5085) rotate(0)"><path fill-rule="evenodd" clip-rule="evenodd" d="M10 20C15.5228 20 20 15.5228 20 10C20 4.47715 15.5228 0 10 0C4.47715 0 0 4.47715 0 10C0 15.5228 4.47715 20 10 20ZM10 17C13.866 17 17 13.866 17 10C17 6.13401 13.866 3 10 3C6.13401 3 3 6.13401 3 10C3 13.866 6.13401 17 10 17Z" fill="#6d9e99"/></g><g transform="translate(150.5,200.67) scale(2.5085) rotate(0)"><path d="M10 0H20L0 20V10L10 0Z" fill="#6d9e99"/><path d="M20 10V20H10L20 10Z" fill="#6d9e99"/></g><g transform="translate(200.67,200.67) scale(2.5085) rotate(0)"><path d="M10 0H20L0 20V10L10 0Z" fill="#ffffff"/><path d="M20 10V20H10L20 10Z" fill="#ffffff"/></g><g transform="translate(250.83,200.67) scale(2.5085) rotate(0)"><path fill-rule="evenodd" clip-rule="evenodd" d="M10 20C15.5228 20 20 15.5228 20 10C20 4.47715 15.5228 0 10 0C4.47715 0 0 4.47715 0 10C0 15.5228 4.47715 20 10 20ZM10 17C13.866 17 17 13.866 17 10C17 6.13401 13.866 3 10 3C6.13401 3 3 6.13401 3 10C3 13.866 6.13401 17 10 17Z" fill="#63737a"/></g><g transform="translate(0,250.83) scale(2.5085) rotate(0)"><path d="M10 0H20L0 20V10L10 0Z" fill="#63737a"/><path d="M20 10V20H10L20 10Z" fill="#63737a"/></g><g transform="translate(50.17,250.83) scale(2.5085) rotate(0)"><path d="M10 0H20L0 20V10L10 0Z" fill="#ffffff"/><path d="M20 10V20H10L20 10Z" fill="#ffffff"/></g><g transform="translate(100.33,250.83) scale(2.5085) rotate(0)"><path d="M10 0L20 10L10 20L0 10L10 0Z" fill="#6d9e99"/></g><rect x="150.5" y="250.83333333333331" width="50.166666666666664" height="50.166666666666664" fill="#fcf6ea"/><g transform="translate(150.5,250.83) scale(1.254) rotate(0)"><path d="M10 0H20L0 20V10L10 0Z" fill="#ffffff"/><path d="M20 10V20H10L20 10Z" fill="#ffffff"/></g><g transform="translate(175.58,250.83) scale(1.254) rotate(0)"><path d="M10 0L20 10L10 20L0 10L10 0Z" fill="#ffffff"/></g><g transform="translate(150.5,275.92) scale(1.254) rotate(0)"><path d="M10 0H20V10L10 20H0V10L10 0Z" fill="#ffe779"/></g><circle cx="188.12" cy="288.46000000000004" r="12.54" fill="#6d9e99"/><g transform="translate(200.67,250.83) scale(2.5085) rotate(0)"><path d="M10 0H20V10L10 20H0V10L10 0Z" fill="#ffffff"/></g><g transform="translate(250.83,250.83) scale(2.5085) rotate(0)"><path d="M10 0L20 10L10 20L0 10L10 0Z" fill="#6d9e99"/></g><rect x="0" y="301" width="50.166666666666664" height="50.166666666666664" fill="#fcf6ea"/><g transform="translate(0,301) scale(1.254) rotate(0)"><path d="M10 0L20 10L10 20L0 10L10 0Z" fill="#6d9e99"/></g><g transform="translate(25.08,301) scale(1.254) rotate(0)"><path fill-rule="evenodd" clip-rule="evenodd" d="M10 20C15.5228 20 20 15.5228 20 10C20 4.47715 15.5228 0 10 0C4.47715 0 0 4.47715 0 10C0 15.5228 4.47715 20 10 20ZM10 17C13.866 17 17 13.866 17 10C17 6.13401 13.866 3 10 3C6.13401 3 3 6.13401 3 10C3 13.866 6.13401 17 10 17Z" fill="#63737a"/></g><g transform="translate(0,326.08) scale(1.254) rotate(0)"><path d="M10 0H20L0 20V10L10 0Z" fill="#ffffff"/><path d="M20 10V20H10L20 10Z" fill="#ffffff"/></g><g transform="translate(25.08,326.08) scale(1.254) rotate(0)"><path d="M10 0L20 10L10 20L0 10L10 0Z" fill="#ffffff"/></g><rect x="50.166666666666664" y="301" width="50.166666666666664" height="50.166666666666664" fill="#fcf6ea"/><g transform="translate(50.17,301) scale(1.254) rotate(0)"><path d="M10 0H20V10L10 20H0V10L10 0Z" fill="#63737a"/></g><g transform="translate(75.25,301) scale(1.254) rotate(0)"><path d="M10 0L20 10L10 20L0 10L10 0Z" fill="#63737a"/></g><g transform="translate(50.17,326.08) scale(1.254) rotate(0)"><path d="M10 0L20 10L10 20L0 10L10 0Z" fill="#6d9e99"/></g><circle cx="87.78999999999999" cy="338.62" r="12.54" fill="#63737a"/><g transform="translate(100.33,301) scale(2.5085) rotate(0)"><path d="M10 0H20V10L10 20H0V10L10 0Z" fill="#ffffff"/></g><g transform="translate(150.5,301) scale(2.5085) rotate(0)"><path d="M10 0H20V10L10 20H0V10L10 0Z" fill="#6d9e99"/></g><g transform="translate(200.67,301) scale(2.5085) rotate(0)"><path d="M10 0H20V10L10 20H0V10L10 0Z" fill="#63737a"/></g><g transform="translate(250.83,301) scale(2.5085) rotate(0)"><path d="M10 0L20 10L10 20L0 10L10 0Z" fill="#6d9e99"/></g><g transform="translate(0,351.17) scale(2.5085) rotate(0)"><path d="M10 0H20V10L10 20H0V10L10 0Z" fill="#ffffff"/></g><g transform="translate(50.17,351.17) scale(2.5085) rotate(0)"><path d="M10 0H20V10L10 20H0V10L10 0Z" fill="#63737a"/></g><rect x="100.33333333333333" y="351.16666666666663" width="50.166666666666664" height="50.166666666666664" fill="#fcf6ea"/><g transform="translate(100.33,351.17) scale(1.254) rotate(0)"><path d="M10 0L20 10L10 20L0 10L10 0Z" fill="#ffe779"/></g><g transform="translate(125.42,351.17) scale(1.254) rotate(0)"><path d="M10 0H20L0 20V10L10 0Z" fill="#63737a"/><path d="M20 10V20H10L20 10Z" fill="#63737a"/></g><g transform="translate(100.33,376.25) scale(1.254) rotate(0)"><path d="M10 0H20L0 20V10L10 0Z" fill="#6d9e99"/><path d="M20 10V20H10L20 10Z" fill="#6d9e99"/></g><g transform="translate(125.42,376.25) scale(1.254) rotate(0)"><path d="M10 0H20L0 20V10L10 0Z" fill="#63737a"/><path d="M20 10V20H10L20 10Z" fill="#63737a"/></g><circle cx="175.585" cy="376.255" r="25.085" fill="#63737a"/><rect x="200.66666666666666" y="351.16666666666663" width="50.166666666666664" height="50.166666666666664" fill="#fcf6ea"/><g transform="translate(200.67,351.17) scale(1.254) rotate(0)"><path d="M10 0L20 10L10 20L0 10L10 0Z" fill="#6d9e99"/></g><g transform="translate(225.75,351.17) scale(1.254) rotate(0)"><path d="M10 0H20V10L10 20H0V10L10 0Z" fill="#ffffff"/></g><g transform="translate(200.67,376.25) scale(1.254) rotate(0)"><path d="M10 0H20L0 20V10L10 0Z" fill="#6d9e99"/><path d="M20 10V20H10L20 10Z" fill="#6d9e99"/></g><g transform="translate(225.75,376.25) scale(1.254) rotate(0)"><path fill-rule="evenodd" clip-rule="evenodd" d="M10 20C15.5228 20 20 15.5228 20 10C20 4.47715 15.5228 0 10 0C4.47715 0 0 4.47715 0 10C0 15.5228 4.47715 20 10 20ZM10 17C13.866 17 17 13.866 17 10C17 6.13401 13.866 3 10 3C6.13401 3 3 6.13401 3 10C3 13.866 6.13401 17 10 17Z" fill="#ffffff"/></g><g transform="translate(250.83,351.17) scale(2.5085) rotate(0)"><path d="M10 0H20V10L10 20H0V10L10 0Z" fill="#ffffff"/></g><g transform="translate(0,401.33) scale(2.5085) rotate(0)"><path fill-rule="evenodd" clip-rule="evenodd" d="M10 20C15.5228 20 20 15.5228 20 10C20 4.47715 15.5228 0 10 0C4.47715 0 0 4.47715 0 10C0 15.5228 4.47715 20 10 20ZM10 17C13.866 17 17 13.866 17 10C17 6.13401 13.866 3 10 3C6.13401 3 3 6.13401 3 10C3 13.866 6.13401 17 10 17Z" fill="#ffe779"/></g><g transform="translate(50.17,401.33) scale(2.5085) rotate(0)"><path fill-rule="evenodd" clip-rule="evenodd" d="M10 20C15.5228 20 20 15.5228 20 10C20 4.47715 15.5228 0 10 0C4.47715 0 0 4.47715 0 10C0 15.5228 4.47715 20 10 20ZM10 17C13.866 17 17 13.866 17 10C17 6.13401 13.866 3 10 3C6.13401 3 3 6.13401 3 10C3 13.866 6.13401 17 10 17Z" fill="#63737a"/></g><g transform="translate(100.33,401.33) scale(2.5085) rotate(0)"><path fill-rule="evenodd" clip-rule="evenodd" d="M10 20C15.5228 20 20 15.5228 20 10C20 4.47715 15.5228 0 10 0C4.47715 0 0 4.47715 0 10C0 15.5228 4.47715 20 10 20ZM10 17C13.866 17 17 13.866 17 10C17 6.13401 13.866 3 10 3C6.13401 3 3 6.13401 3 10C3 13.866 6.13401 17 10 17Z" fill="#6d9e99"/></g><circle cx="175.585" cy="426.41499999999996" r="25.085" fill="#ffe779"/><g transform="translate(200.67,401.33) scale(2.5085) rotate(0)"><path d="M10 0L20 10L10 20L0 10L10 0Z" fill="#ffe779"/></g><rect x="250.83333333333331" y="401.3333333333333" width="50.166666666666664" height="50.166666666666664" fill="#fcf6ea"/><g transform="translate(250.83,401.33) scale(1.254) rotate(0)"><path d="M10 0H20L0 20V10L10 0Z" fill="#6d9e99"/><path d="M20 10V20H10L20 10Z" fill="#6d9e99"/></g><circle cx="288.46000000000004" cy="413.87" r="12.54" fill="#ffe779"/><g transform="translate(250.83,426.42) scale(1.254) rotate(0)"><path d="M10 0L20 10L10 20L0 10L10 0Z" fill="#6d9e99"/></g><g transform="translate(275.92,426.42) scale(1.254) rotate(0)"><path d="M10 0H20V10L10 20H0V10L10 0Z" fill="#63737a"/></g><g transform="translate(0,451.5) scale(2.5085) rotate(0)"><path d="M10 0L20 10L10 20L0 10L10 0Z" fill="#ffe779"/></g><g transform="translate(50.17,451.5) scale(2.5085) rotate(0)"><path d="M10 0L20 10L10 20L0 10L10 0Z" fill="#6d9e99"/></g><g transform="translate(100.33,451.5) scale(2.5085) rotate(0)"><path d="M10 0H20L0 20V10L10 0Z" fill="#6d9e99"/><path d="M20 10V20H10L20 10Z" fill="#6d9e99"/></g><rect x="150.5" y="451.5" width="50.166666666666664" height="50.166666666666664" fill="#fcf6ea"/><circle cx="163.04" cy="464.04" r="12.54" fill="#6d9e99"/><circle cx="188.12" cy="464.04" r="12.54" fill="#ffe779"/><circle cx="163.04" cy="489.12" r="12.54" fill="#6d9e99"/><g transform="translate(175.58,476.58) scale(1.254) rotate(0)"><path d="M10 0L20 10L10 20L0 10L10 0Z" fill="#63737a"/></g><g transform="translate(200.67,451.5) scale(2.5085) rotate(0)"><path d="M10 0H20L0 20V10L10 0Z" fill="#63737a"/><path d="M20 10V20H10L20 10Z" fill="#63737a"/></g><g transform="translate(250.83,451.5) scale(2.5085) rotate(0)"><path d="M10 0H20V10L10 20H0V10L10 0Z" fill="#63737a"/></g><rect x="0" y="501.66666666666663" width="50.166666666666664" height="50.166666666666664" fill="#fcf6ea"/><g transform="translate(0,501.67) scale(1.254) rotate(0)"><path d="M10 0L20 10L10 20L0 10L10 0Z" fill="#63737a"/></g><circle cx="37.62" cy="514.21" r="12.54" fill="#ffffff"/><circle cx="12.54" cy="539.29" r="12.54" fill="#ffe779"/><circle cx="37.62" cy="539.29" r="12.54" fill="#6d9e99"/><circle cx="75.255" cy="526.755" r="25.085" fill="#ffe779"/><g transform="translate(100.33,501.67) scale(2.5085) rotate(0)"><path fill-rule="evenodd" clip-rule="evenodd" d="M10 20C15.5228 20 20 15.5228 20 10C20 4.47715 15.5228 0 10 0C4.47715 0 0 4.47715 0 10C0 15.5228 4.47715 20 10 20ZM10 17C13.866 17 17 13.866 17 10C17 6.13401 13.866 3 10 3C6.13401 3 3 6.13401 3 10C3 13.866 6.13401 17 10 17Z" fill="#ffffff"/></g><g transform="translate(150.5,501.67) scale(2.5085) rotate(0)"><path fill-rule="evenodd" clip-rule="evenodd" d="M10 20C15.5228 20 20 15.5228 20 10C20 4.47715 15.5228 0 10 0C4.47715 0 0 4.47715 0 10C0 15.5228 4.47715 20 10 20ZM10 17C13.866 17 17 13.866 17 10C17 6.13401 13.866 3 10 3C6.13401 3 3 6.13401 3 10C3 13.866 6.13401 17 10 17Z" fill="#ffffff"/></g><g transform="translate(200.67,501.67) scale(2.5085) rotate(0)"><path d="M10 0H20L0 20V10L10 0Z" fill="#ffffff"/><path d="M20 10V20H10L20 10Z" fill="#ffffff"/></g><circle cx="275.915" cy="526.755" r="25.085" fill="#ffe779"/><g transform="translate(0,551.83) scale(2.5085) rotate(0)"><path d="M10 0L20 10L10 20L0 10L10 0Z" fill="#6d9e99"/></g><rect x="50.166666666666664" y="551.8333333333333" width="50.166666666666664" height="50.166666666666664" fill="#fcf6ea"/><g transform="translate(50.17,551.83) scale(1.254) rotate(0)"><path fill-rule="evenodd" clip-rule="evenodd" d="M10 20C15.5228 20 20 15.5228 20 10C20 4.47715 15.5228 0 10 0C4.47715 0 0 4.47715 0 10C0 15.5228 4.47715 20 10 20ZM10 17C13.866 17 17 13.866 17 10C17 6.13401 13.866 3 10 3C6.13401 3 3 6.13401 3 10C3 13.866 6.13401 17 10 17Z" fill="#ffe779"/></g><g transform="translate(75.25,551.83) scale(1.254) rotate(0)"><path fill-rule="evenodd" clip-rule="evenodd" d="M10 20C15.5228 20 20 15.5228 20 10C20 4.47715 15.5228 0 10 0C4.47715 0 0 4.47715 0 10C0 15.5228 4.47715 20 10 20ZM10 17C13.866 17 17 13.866 17 10C17 6.13401 13.866 3 10 3C6.13401 3 3 6.13401 3 10C3 13.866 6.13401 17 10 17Z" fill="#ffffff"/></g><g transform="translate(50.17,576.92) scale(1.254) rotate(0)"><path fill-rule="evenodd" clip-rule="evenodd" d="M10 20C15.5228 20 20 15.5228 20 10C20 4.47715 15.5228 0 10 0C4.47715 0 0 4.47715 0 10C0 15.5228 4.47715 20 10 20ZM10 17C13.866 17 17 13.866 17 10C17 6.13401 13.866 3 10 3C6.13401 3 3 6.13401 3 10C3 13.866 6.13401 17 10 17Z" fill="#ffffff"/></g><g transform="translate(75.25,576.92) scale(1.254) rotate(0)"><path fill-rule="evenodd" clip-rule="evenodd" d="M10 20C15.5228 20 20 15.5228 20 10C20 4.47715 15.5228 0 10 0C4.47715 0 0 4.47715 0 10C0 15.5228 4.47715 20 10 20ZM10 17C13.866 17 17 13.866 17 10C17 6.13401 13.866 3 10 3C6.13401 3 3 6.13401 3 10C3 13.866 6.13401 17 10 17Z" fill="#ffffff"/></g><g transform="translate(100.33,551.83) scale(2.5085) rotate(0)"><path fill-rule="evenodd" clip-rule="evenodd" d="M10 20C15.5228 20 20 15.5228 20 10C20 4.47715 15.5228 0 10 0C4.47715 0 0 4.47715 0 10C0 15.5228 4.47715 20 10 20ZM10 17C13.866 17 17 13.866 17 10C17 6.13401 13.866 3 10 3C6.13401 3 3 6.13401 3 10C3 13.866 6.13401 17 10 17Z" fill="#ffe779"/></g><rect x="150.5" y="551.8333333333333" width="50.166666666666664" height="50.166666666666664" fill="#fcf6ea"/><g transform="translate(150.5,551.83) scale(1.254) rotate(0)"><path d="M10 0H20V10L10 20H0V10L10 0Z" fill="#6d9e99"/></g><g transform="translate(175.58,551.83) scale(1.254) rotate(0)"><path d="M10 0H20L0 20V10L10 0Z" fill="#ffe779"/><path d="M20 10V20H10L20 10Z" fill="#ffe779"/></g><g transform="translate(150.5,576.92) scale(1.254) rotate(0)"><path d="M10 0H20V10L10 20H0V10L10 0Z" fill="#63737a"/></g><g transform="translate(175.58,576.92) scale(1.254) rotate(0)"><path d="M10 0L20 10L10 20L0 10L10 0Z" fill="#6d9e99"/></g><rect x="200.66666666666666" y="551.8333333333333" width="50.166666666666664" height="50.166666666666664" fill="#fcf6ea"/><g transform="translate(200.67,551.83) scale(1.254) rotate(0)"><path fill-rule="evenodd" clip-rule="evenodd" d="M10 20C15.5228 20 20 15.5228 20 10C20 4.47715 15.5228 0 10 0C4.47715 0 0 4.47715 0 10C0 15.5228 4.47715 20 10 20ZM10 17C13.866 17 17 13.866 17 10C17 6.13401 13.866 3 10 3C6.13401 3 3 6.13401 3 10C3 13.866 6.13401 17 10 17Z" fill="#6d9e99"/></g><g transform="translate(225.75,551.83) scale(1.254) rotate(0)"><path d="M10 0H20V10L10 20H0V10L10 0Z" fill="#ffffff"/></g><g transform="translate(200.67,576.92) scale(1.254) rotate(0)"><path d="M10 0H20V10L10 20H0V10L10 0Z" fill="#63737a"/></g><g transform="translate(225.75,576.92) scale(1.254) rotate(0)"><path fill-rule="evenodd" clip-rule="evenodd" d="M10 20C15.5228 20 20 15.5228 20 10C20 4.47715 15.5228 0 10 0C4.47715 0 0 4.47715 0 10C0 15.5228 4.47715 20 10 20ZM10 17C13.866 17 17 13.866 17 10C17 6.13401 13.866 3 10 3C6.13401 3 3 6.13401 3 10C3 13.866 6.13401 17 10 17Z" fill="#ffffff"/></g><g transform="translate(250.83,551.83) scale(2.5085) rotate(0)"><path fill-rule="evenodd" clip-rule="evenodd" d="M10 20C15.5228 20 20 15.5228 20 10C20 4.47715 15.5228 0 10 0C4.47715 0 0 4.47715 0 10C0 15.5228 4.47715 20 10 20ZM10 17C13.866 17 17 13.866 17 10C17 6.13401 13.866 3 10 3C6.13401 3 3 6.13401 3 10C3 13.866 6.13401 17 10 17Z" fill="#ffe779"/></g></g></svg>