<?xml version="1.0" standalone="no"?><svg xmlns:xlink="http://www.w3.org/1999/xlink" xmlns="http://www.w3.org/2000/svg" viewBox="0 0 1000 1250.0284528479403" preserveAspectRatio="xMaxYMax slice"><g transform="scale(1.8968565293595454)"><rect x="0" y="0" width="527.2" height="659" fill="#fcf6ea"/><g transform="translate(0,0) scale(3.2950000000000004) rotate(0)"><path d="M10 0H20L0 20V10L10 0Z" fill="#f4c2c9"/><path d="M20 10V20H10L20 10Z" fill="#f4c2c9"/></g><rect x="65.9" y="0" width="65.9" height="65.9" fill="#fcf6ea"/><g transform="translate(65.9,0) scale(1.6475000000000002) rotate(0)"><path d="M5 0H10L5 5L0 10V5L5 0Z" fill="#ffe779"/><path d="M20 15V20H15L20 15Z" fill="#ffe779"/><path d="M20 5V10L15 15L10 20H5L20 5Z" fill="#ffe779"/><path d="M15 0H20L5 15.0002L0 20.0002V15.0002L15 0Z" fill="#ffe779"/></g><g transform="translate(98.85,0) scale(1.6475000000000002) rotate(0)"><path d="M5 0H10L5 5L0 10V5L5 0Z" fill="#f4c2c9"/><path d="M20 15V20H15L20 15Z" fill="#f4c2c9"/><path d="M20 5V10L15 15L10 20H5L20 5Z" fill="#f4c2c9"/><path d="M15 0H20L5 15.0002L0 20.0002V15.0002L15 0Z" fill="#f4c2c9"/></g><g transform="translate(65.9,32.95) scale(1.6475000000000002) rotate(0)"><path d="M10 0H20L0 20V10L10 0Z" fill="#f4c2c9"/><path d="M20 10V20H10L20 10Z" fill="#f4c2c9"/></g><g transform="translate(98.85,32.95) scale(1.6475000000000002) rotate(0)"><path d="M10 0H20L0 20V10L10 0Z" fill="#6d9e99"/><path d="M20 10V20H10L20 10Z" fill="#6d9e99"/></g><g transform="translate(131.8,0) scale(3.2950000000000004) rotate(0)"><path d="M10 0L20 10L10 20L0 10L10 0Z" fill="#6d9e99"/></g><g transform="translate(197.7,0) scale(3.2950000000000004) rotate(0)"><path d="M10 0H20L0 20V10L10 0Z" fill="#f4c2c9"/><path d="M20 10V20H10L20 10Z" fill="#f4c2c9"/></g><g transform="translate(263.6,0) scale(3.2950000000000004) rotate(0)"><path d="M5 0H10L5 5L0 10V5L5 0Z" fill="#ffe779"/><path d="M20 15V20H15L20 15Z" fill="#ffe779"/><path d="M20 5V10L15 15L10 20H5L20 5Z" fill="#ffe779"/><path d="M15 0H20L5 15.0002L0 20.0002V15.0002L15 0Z" fill="#ffe779"/></g><g transform="translate(329.5,0) scale(3.2950000000000004) rotate(0)"><path d="M5 0H10L5 5L0 10V5L5 0Z" fill="#f4c2c9"/><path d="M20 15V20H15L20 15Z" fill="#f4c2c9"/><path d="M20 5V10L15 15L10 20H5L20 5Z" fill="#f4c2c9"/><path d="M15 0H20L5 15.0002L0 20.0002V15.0002L15 0Z" fill="#f4c2c9"/></g><g transform="translate(395.4,0) scale(3.2950000000000004) rotate(0)"><path d="M10 0L20 10L10 20L0 10L10 0Z" fill="#f4c2c9"/></g><g transform="translate(461.3,0) scale(3.2950000000000004) rotate(0)"><path d="M10 0H20L0 20V10L10 0Z" fill="#f4c2c9"/><path d="M20 10V20H10L20 10Z" fill="#f4c2c9"/></g><rect x="0" y="65.9" width="65.9" height="65.9" fill="#fcf6ea"/><g transform="translate(0,65.9) scale(1.6475000000000002) rotate(0)"><path d="M10 0L20 10L10 20L0 10L10 0Z" fill="#ffffff"/></g><g transform="translate(32.95,65.9) scale(1.6475000000000002) rotate(0)"><path d="M5 0H10L5 5L0 10V5L5 0Z" fill="#f4c2c9"/><path d="M20 15V20H15L20 15Z" fill="#f4c2c9"/><path d="M20 5V10L15 15L10 20H5L20 5Z" fill="#f4c2c9"/><path d="M15 0H20L5 15.0002L0 20.0002V15.0002L15 0Z" fill="#f4c2c9"/></g><g transform="translate(0,98.85) scale(1.6475000000000002) rotate(0)"><path d="M10 0L20 10L10 20L0 10L10 0Z" fill="#6d9e99"/></g><g transform="translate(32.95,98.85) scale(1.6475000000000002) rotate(0)"><path d="M5 0H10L5 5L0 10V5L5 0Z" fill="#6d9e99"/><path d="M20 15V20H15L20 15Z" fill="#6d9e99"/><path d="M20 5V10L15 15L10 20H5L20 5Z" fill="#6d9e99"/><path d="M15 0H20L5 15.0002L0 20.0002V15.0002L15 0Z" fill="#6d9e99"/></g><rect x="65.9" y="65.9" width="65.9" height="65.9" fill="#fcf6ea"/><g transform="translate(65.9,65.9) scale(1.6475000000000002) rotate(0)"><path d="M10 0L20 10L10 20L0 10L10 0Z" fill="#f4c2c9"/></g><g transform="translate(98.85,65.9) scale(1.6475000000000002) rotate(0)"><path d="M10 0L20 10L10 20L0 10L10 0Z" fill="#6d9e99"/></g><g transform="translate(65.9,98.85) scale(1.6475000000000002) rotate(0)"><path d="M5 0H10L5 5L0 10V5L5 0Z" fill="#f4c2c9"/><path d="M20 15V20H15L20 15Z" fill="#f4c2c9"/><path d="M20 5V10L15 15L10 20H5L20 5Z" fill="#f4c2c9"/><path d="M15 0H20L5 15.0002L0 20.0002V15.0002L15 0Z" fill="#f4c2c9"/></g><g transform="translate(98.85,98.85) scale(1.6475000000000002) rotate(0)"><path d="M10 0L20 10L10 20L0 10L10 0Z" fill="#6d9e99"/></g><g transform="translate(131.8,65.9) scale(3.2950000000000004) rotate(0)"><path d="M10 0H20L0 20V10L10 0Z" fill="#ffffff"/><path d="M20 10V20H10L20 10Z" fill="#ffffff"/></g><g transform="translate(197.7,65.9) scale(3.2950000000000004) rotate(0)"><path d="M10 0H20L0 20V10L10 0Z" fill="#ffe779"/><path d="M20 10V20H10L20 10Z" fill="#ffe779"/></g><g transform="translate(263.6,65.9) scale(3.2950000000000004) rotate(0)"><path d="M10 0H20L0 20V10L10 0Z" fill="#ffffff"/><path d="M20 10V20H10L20 10Z" fill="#ffffff"/></g><g transform="translate(329.5,65.9) scale(3.2950000000000004) rotate(0)"><path d="M10 0L20 10L10 20L0 10L10 0Z" fill="#ffffff"/></g><rect x="395.40000000000003" y="65.9" width="65.9" height="65.9" fill="#fcf6ea"/><g transform="translate(395.4,65.9) scale(1.6475000000000002) rotate(0)"><path d="M10 0L20 10L10 20L0 10L10 0Z" fill="#f4c2c9"/></g><g transform="translate(428.35,65.9) scale(1.6475000000000002) rotate(0)"><path d="M5 0H10L5 5L0 10V5L5 0Z" fill="#f4c2c9"/><path d="M20 15V20H15L20 15Z" fill="#f4c2c9"/><path d="M20 5V10L15 15L10 20H5L20 5Z" fill="#f4c2c9"/><path d="M15 0H20L5 15.0002L0 20.0002V15.0002L15 0Z" fill="#f4c2c9"/></g><g transform="translate(395.4,98.85) scale(1.6475000000000002) rotate(0)"><path d="M10 0L20 10L10 20L0 10L10 0Z" fill="#ffe779"/></g><g transform="translate(428.35,98.85) scale(1.6475000000000002) rotate(0)"><path d="M5 0H10L5 5L0 10V5L5 0Z" fill="#ffe779"/><path d="M20 15V20H15L20 15Z" fill="#ffe779"/><path d="M20 5V10L15 15L10 20H5L20 5Z" fill="#ffe779"/><path d="M15 0H20L5 15.0002L0 20.0002V15.0002L15 0Z" fill="#ffe779"/></g><rect x="461.30000000000007" y="65.9" width="65.9" height="65.9" fill="#fcf6ea"/><g transform="translate(461.3,65.9) scale(1.6475000000000002) rotate(0)"><path d="M5 0H10L5 5L0 10V5L5 0Z" fill="#f4c2c9"/><path d="M20 15V20H15L20 15Z" fill="#f4c2c9"/><path d="M20 5V10L15 15L10 20H5L20 5Z" fill="#f4c2c9"/><path d="M15 0H20L5 15.0002L0 20.0002V15.0002L15 0Z" fill="#f4c2c9"/></g><g transform="translate(494.25,65.9) scale(1.6475000000000002) rotate(0)"><path d="M10 0H20L0 20V10L10 0Z" fill="#ffffff"/><path d="M20 10V20H10L20 10Z" fill="#ffffff"/></g><g transform="translate(461.3,98.85) scale(1.6475000000000002) rotate(0)"><path d="M5 0H10L5 5L0 10V5L5 0Z" fill="#f4c2c9"/><path d="M20 15V20H15L20 15Z" fill="#f4c2c9"/><path d="M20 5V10L15 15L10 20H5L20 5Z" fill="#f4c2c9"/><path d="M15 0H20L5 15.0002L0 20.0002V15.0002L15 0Z" fill="#f4c2c9"/></g><g transform="translate(494.25,98.85) scale(1.6475000000000002) rotate(0)"><path d="M10 0H20L0 20V10L10 0Z" fill="#6d9e99"/><path d="M20 10V20H10L20 10Z" fill="#6d9e99"/></g><g transform="translate(0,131.8) scale(3.2950000000000004) rotate(0)"><path d="M10 0L20 10L10 20L0 10L10 0Z" fill="#6d9e99"/></g><g transform="translate(65.9,131.8) scale(3.2950000000000004) rotate(0)"><path d="M10 0L20 10L10 20L0 10L10 0Z" fill="#ffffff"/></g><g transform="translate(131.8,131.8) scale(3.2950000000000004) rotate(0)"><path d="M10 0H20L0 20V10L10 0Z" fill="#ffffff"/><path d="M20 10V20H10L20 10Z" fill="#ffffff"/></g><g transform="translate(197.7,131.8) scale(3.2950000000000004) rotate(0)"><path d="M10 0L20 10L10 20L0 10L10 0Z" fill="#f4c2c9"/></g><g transform="translate(263.6,131.8) scale(3.2950000000000004) rotate(0)"><path d="M5 0H10L5 5L0 10V5L5 0Z" fill="#f4c2c9"/><path d="M20 15V20H15L20 15Z" fill="#f4c2c9"/><path d="M20 5V10L15 15L10 20H5L20 5Z" fill="#f4c2c9"/><path d="M15 0H20L5 15.0002L0 20.0002V15.0002L15 0Z" fill="#f4c2c9"/></g><g transform="translate(329.5,131.8) scale(3.2950000000000004) rotate(0)"><path d="M10 0H20L0 20V10L10 0Z" fill="#ffffff"/><path d="M20 10V20H10L20 10Z" fill="#ffffff"/></g><g transform="translate(395.4,131.8) scale(3.2950000000000004) rotate(0)"><path d="M5 0H10L5 5L0 10V5L5 0Z" fill="#f4c2c9"/><path d="M20 15V20H15L20 15Z" fill="#f4c2c9"/><path d="M20 5V10L15 15L10 20H5L20 5Z" fill="#f4c2c9"/><path d="M15 0H20L5 15.0002L0 20.0002V15.0002L15 0Z" fill="#f4c2c9"/></g><g transform="translate(461.3,131.8) scale(3.2950000000000004) rotate(0)"><path d="M10 0L20 10L10 20L0 10L10 0Z" fill="#ffffff"/></g><rect x="0" y="197.70000000000002" width="65.9" height="65.9" fill="#fcf6ea"/><g transform="translate(0,197.7) scale(1.6475000000000002) rotate(0)"><path d="M10 0L20 10L10 20L0 10L10 0Z" fill="#ffffff"/></g><g transform="translate(32.95,197.7) scale(1.6475000000000002) rotate(0)"><path d="M10 0H20L0 20V10L10 0Z" fill="#ffffff"/><path d="M20 10V20H10L20 10Z" fill="#ffffff"/></g><g transform="translate(0,230.65) scale(1.6475000000000002) rotate(0)"><path d="M5 0H10L5 5L0 10V5L5 0Z" fill="#f4c2c9"/><path d="M20 15V20H15L20 15Z" fill="#f4c2c9"/><path d="M20 5V10L15 15L10 20H5L20 5Z" fill="#f4c2c9"/><path d="M15 0H20L5 15.0002L0 20.0002V15.0002L15 0Z" fill="#f4c2c9"/></g><g transform="translate(32.95,230.65) scale(1.6475000000000002) rotate(0)"><path d="M10 0L20 10L10 20L0 10L10 0Z" fill="#ffffff"/></g><rect x="65.9" y="197.70000000000002" width="65.9" height="65.9" fill="#fcf6ea"/><g transform="translate(65.9,197.7) scale(1.6475000000000002) rotate(0)"><path d="M10 0L20 10L10 20L0 10L10 0Z" fill="#f4c2c9"/></g><g transform="translate(98.85,197.7) scale(1.6475000000000002) rotate(0)"><path d="M10 0H20L0 20V10L10 0Z" fill="#ffe779"/><path d="M20 10V20H10L20 10Z" fill="#ffe779"/></g><g transform="translate(65.9,230.65) scale(1.6475000000000002) rotate(0)"><path d="M5 0H10L5 5L0 10V5L5 0Z" fill="#6d9e99"/><path d="M20 15V20H15L20 15Z" fill="#6d9e99"/><path d="M20 5V10L15 15L10 20H5L20 5Z" fill="#6d9e99"/><path d="M15 0H20L5 15.0002L0 20.0002V15.0002L15 0Z" fill="#6d9e99"/></g><g transform="translate(98.85,230.65) scale(1.6475000000000002) rotate(0)"><path d="M5 0H10L5 5L0 10V5L5 0Z" fill="#f4c2c9"/><path d="M20 15V20H15L20 15Z" fill="#f4c2c9"/><path d="M20 5V10L15 15L10 20H5L20 5Z" fill="#f4c2c9"/><path d="M15 0H20L5 15.0002L0 20.0002V15.0002L15 0Z" fill="#f4c2c9"/></g><g transform="translate(131.8,197.7) scale(3.2950000000000004) rotate(0)"><path d="M10 0L20 10L10 20L0 10L10 0Z" fill="#f4c2c9"/></g><g transform="translate(197.7,197.7) scale(3.2950000000000004) rotate(0)"><path d="M10 0H20L0 20V10L10 0Z" fill="#f4c2c9"/><path d="M20 10V20H10L20 10Z" fill="#f4c2c9"/></g><g transform="translate(263.6,197.7) scale(3.2950000000000004) rotate(0)"><path d="M10 0H20L0 20V10L10 0Z" fill="#6d9e99"/><path d="M20 10V20H10L20 10Z" fill="#6d9e99"/></g><g transform="translate(329.5,197.7) scale(3.2950000000000004) rotate(0)"><path d="M5 0H10L5 5L0 10V5L5 0Z" fill="#ffe779"/><path d="M20 15V20H15L20 15Z" fill="#ffe779"/><path d="M20 5V10L15 15L10 20H5L20 5Z" fill="#ffe779"/><path d="M15 0H20L5 15.0002L0 20.0002V15.0002L15 0Z" fill="#ffe779"/></g><rect x="395.40000000000003" y="197.70000000000002" width="65.9" height="65.9" fill="#fcf6ea"/><g transform="translate(395.4,197.7) scale(1.6475000000000002) rotate(0)"><path d="M10 0L20 10L10 20L0 10L10 0Z" fill="#ffe779"/></g><g transform="translate(428.35,197.7) scale(1.6475000000000002) rotate(0)"><path d="M10 0L20 10L10 20L0 10L10 0Z" fill="#ffffff"/></g><g transform="translate(395.4,230.65) scale(1.6475000000000002) rotate(0)"><path d="M5 0H10L5 5L0 10V5L5 0Z" fill="#6d9e99"/><path d="M20 15V20H15L20 15Z" fill="#6d9e99"/><path d="M20 5V10L15 15L10 20H5L20 5Z" fill="#6d9e99"/><path d="M15 0H20L5 15.0002L0 20.0002V15.0002L15 0Z" fill="#6d9e99"/></g><g transform="translate(428.35,230.65) scale(1.6475000000000002) rotate(0)"><path d="M10 0H20L0 20V10L10 0Z" fill="#ffe779"/><path d="M20 10V20H10L20 10Z" fill="#ffe779"/></g><g transform="translate(461.3,197.7) scale(3.2950000000000004) rotate(0)"><path d="M10 0H20L0 20V10L10 0Z" fill="#6d9e99"/><path d="M20 10V20H10L20 10Z" fill="#6d9e99"/></g><g transform="translate(0,263.6) scale(3.2950000000000004) rotate(0)"><path d="M5 0H10L5 5L0 10V5L5 0Z" fill="#6d9e99"/><path d="M20 15V20H15L20 15Z" fill="#6d9e99"/><path d="M20 5V10L15 15L10 20H5L20 5Z" fill="#6d9e99"/><path d="M15 0H20L5 15.0002L0 20.0002V15.0002L15 0Z" fill="#6d9e99"/></g><rect x="65.9" y="263.6" width="65.9" height="65.9" fill="#fcf6ea"/><g transform="translate(65.9,263.6) scale(1.6475000000000002) rotate(0)"><path d="M5 0H10L5 5L0 10V5L5 0Z" fill="#f4c2c9"/><path d="M20 15V20H15L20 15Z" fill="#f4c2c9"/><path d="M20 5V10L15 15L10 20H5L20 5Z" fill="#f4c2c9"/><path d="M15 0H20L5 15.0002L0 20.0002V15.0002L15 0Z" fill="#f4c2c9"/></g><g transform="translate(98.85,263.6) scale(1.6475000000000002) rotate(0)"><path d="M10 0H20L0 20V10L10 0Z" fill="#6d9e99"/><path d="M20 10V20H10L20 10Z" fill="#6d9e99"/></g><g transform="translate(65.9,296.55) scale(1.6475000000000002) rotate(0)"><path d="M10 0H20L0 20V10L10 0Z" fill="#f4c2c9"/><path d="M20 10V20H10L20 10Z" fill="#f4c2c9"/></g><g transform="translate(98.85,296.55) scale(1.6475000000000002) rotate(0)"><path d="M10 0H20L0 20V10L10 0Z" fill="#ffffff"/><path d="M20 10V20H10L20 10Z" fill="#ffffff"/></g><g transform="translate(131.8,263.6) scale(3.2950000000000004) rotate(0)"><path d="M5 0H10L5 5L0 10V5L5 0Z" fill="#f4c2c9"/><path d="M20 15V20H15L20 15Z" fill="#f4c2c9"/><path d="M20 5V10L15 15L10 20H5L20 5Z" fill="#f4c2c9"/><path d="M15 0H20L5 15.0002L0 20.0002V15.0002L15 0Z" fill="#f4c2c9"/></g><g transform="translate(197.7,263.6) scale(3.2950000000000004) rotate(0)"><path d="M5 0H10L5 5L0 10V5L5 0Z" fill="#ffe779"/><path d="M20 15V20H15L20 15Z" fill="#ffe779"/><path d="M20 5V10L15 15L10 20H5L20 5Z" fill="#ffe779"/><path d="M15 0H20L5 15.0002L0 20.0002V15.0002L15 0Z" fill="#ffe779"/></g><g transform="translate(263.6,263.6) scale(3.2950000000000004) rotate(0)"><path d="M10 0L20 10L10 20L0 10L10 0Z" fill="#f4c2c9"/></g><g transform="translate(329.5,263.6) scale(3.2950000000000004) rotate(0)"><path d="M5 0H10L5 5L0 10V5L5 0Z" fill="#f4c2c9"/><path d="M20 15V20H15L20 15Z" fill="#f4c2c9"/><path d="M20 5V10L15 15L10 20H5L20 5Z" fill="#f4c2c9"/><path d="M15 0H20L5 15.0002L0 20.0002V15.0002L15 0Z" fill="#f4c2c9"/></g><g transform="translate(395.4,263.6) scale(3.2950000000000004) rotate(0)"><path d="M10 0H20L0 20V10L10 0Z" fill="#6d9e99"/><path d="M20 10V20H10L20 10Z" fill="#6d9e99"/></g><rect x="461.30000000000007" y="263.6" width="65.9" height="65.9" fill="#fcf6ea"/><g transform="translate(461.3,263.6) scale(1.6475000000000002) rotate(0)"><path d="M10 0H20L0 20V10L10 0Z" fill="#ffffff"/><path d="M20 10V20H10L20 10Z" fill="#ffffff"/></g><g transform="translate(494.25,263.6) scale(1.6475000000000002) rotate(0)"><path d="M10 0L20 10L10 20L0 10L10 0Z" fill="#6d9e99"/></g><g transform="translate(461.3,296.55) scale(1.6475000000000002) rotate(0)"><path d="M10 0L20 10L10 20L0 10L10 0Z" fill="#ffe779"/></g><g transform="translate(494.25,296.55) scale(1.6475000000000002) rotate(0)"><path d="M5 0H10L5 5L0 10V5L5 0Z" fill="#f4c2c9"/><path d="M20 15V20H15L20 15Z" fill="#f4c2c9"/><path d="M20 5V10L15 15L10 20H5L20 5Z" fill="#f4c2c9"/><path d="M15 0H20L5 15.0002L0 20.0002V15.0002L15 0Z" fill="#f4c2c9"/></g><g transform="translate(0,329.5) scale(3.2950000000000004) rotate(0)"><path d="M10 0H20L0 20V10L10 0Z" fill="#ffffff"/><path d="M20 10V20H10L20 10Z" fill="#ffffff"/></g><rect x="65.9" y="329.5" width="65.9" height="65.9" fill="#fcf6ea"/><g transform="translate(65.9,329.5) scale(1.6475000000000002) rotate(0)"><path d="M5 0H10L5 5L0 10V5L5 0Z" fill="#6d9e99"/><path d="M20 15V20H15L20 15Z" fill="#6d9e99"/><path d="M20 5V10L15 15L10 20H5L20 5Z" fill="#6d9e99"/><path d="M15 0H20L5 15.0002L0 20.0002V15.0002L15 0Z" fill="#6d9e99"/></g><g transform="translate(98.85,329.5) scale(1.6475000000000002) rotate(0)"><path d="M10 0H20L0 20V10L10 0Z" fill="#f4c2c9"/><path d="M20 10V20H10L20 10Z" fill="#f4c2c9"/></g><g transform="translate(65.9,362.45) scale(1.6475000000000002) rotate(0)"><path d="M10 0H20L0 20V10L10 0Z" fill="#f4c2c9"/><path d="M20 10V20H10L20 10Z" fill="#f4c2c9"/></g><g transform="translate(98.85,362.45) scale(1.6475000000000002) rotate(0)"><path d="M10 0L20 10L10 20L0 10L10 0Z" fill="#f4c2c9"/></g><g transform="translate(131.8,329.5) scale(3.2950000000000004) rotate(0)"><path d="M10 0L20 10L10 20L0 10L10 0Z" fill="#f4c2c9"/></g><g transform="translate(197.7,329.5) scale(3.2950000000000004) rotate(0)"><path d="M10 0L20 10L10 20L0 10L10 0Z" fill="#6d9e99"/></g><g transform="translate(263.6,329.5) scale(3.2950000000000004) rotate(0)"><path d="M10 0H20L0 20V10L10 0Z" fill="#6d9e99"/><path d="M20 10V20H10L20 10Z" fill="#6d9e99"/></g><g transform="translate(329.5,329.5) scale(3.2950000000000004) rotate(0)"><path d="M5 0H10L5 5L0 10V5L5 0Z" fill="#f4c2c9"/><path d="M20 15V20H15L20 15Z" fill="#f4c2c9"/><path d="M20 5V10L15 15L10 20H5L20 5Z" fill="#f4c2c9"/><path d="M15 0H20L5 15.0002L0 20.0002V15.0002L15 0Z" fill="#f4c2c9"/></g><g transform="translate(395.4,329.5) scale(3.2950000000000004) rotate(0)"><path d="M5 0H10L5 5L0 10V5L5 0Z" fill="#ffe779"/><path d="M20 15V20H15L20 15Z" fill="#ffe779"/><path d="M20 5V10L15 15L10 20H5L20 5Z" fill="#ffe779"/><path d="M15 0H20L5 15.0002L0 20.0002V15.0002L15 0Z" fill="#ffe779"/></g><g transform="translate(461.3,329.5) scale(3.2950000000000004) rotate(0)"><path d="M5 0H10L5 5L0 10V5L5 0Z" fill="#f4c2c9"/><path d="M20 15V20H15L20 15Z" fill="#f4c2c9"/><path d="M20 5V10L15 15L10 20H5L20 5Z" fill="#f4c2c9"/><path d="M15 0H20L5 15.0002L0 20.0002V15.0002L15 0Z" fill="#f4c2c9"/></g><g transform="translate(0,395.4) scale(3.2950000000000004) rotate(0)"><path d="M10 0H20L0 20V10L10 0Z" fill="#6d9e99"/><path d="M20 10V20H10L20 10Z" fill="#6d9e99"/></g><g transform="translate(65.9,395.4) scale(3.2950000000000004) rotate(0)"><path d="M10 0H20L0 20V10L10 0Z" fill="#6d9e99"/><path d="M20 10V20H10L20 10Z" fill="#6d9e99"/></g><g transform="translate(131.8,395.4) scale(3.2950000000000004) rotate(0)"><path d="M10 0H20L0 20V10L10 0Z" fill="#ffe779"/><path d="M20 10V20H10L20 10Z" fill="#ffe779"/></g><g transform="translate(197.7,395.4) scale(3.2950000000000004) rotate(0)"><path d="M10 0H20L0 20V10L10 0Z" fill="#f4c2c9"/><path d="M20 10V20H10L20 10Z" fill="#f4c2c9"/></g><g transform="translate(263.6,395.4) scale(3.2950000000000004) rotate(0)"><path d="M10 0H20L0 20V10L10 0Z" fill="#f4c2c9"/><path d="M20 10V20H10L20 10Z" fill="#f4c2c9"/></g><g transform="translate(329.5,395.4) scale(3.2950000000000004) rotate(0)"><path d="M5 0H10L5 5L0 10V5L5 0Z" fill="#ffffff"/><path d="M20 15V20H15L20 15Z" fill="#ffffff"/><path d="M20 5V10L15 15L10 20H5L20 5Z" fill="#ffffff"/><path d="M15 0H20L5 15.0002L0 20.0002V15.0002L15 0Z" fill="#ffffff"/></g><g transform="translate(395.4,395.4) scale(3.2950000000000004) rotate(0)"><path d="M5 0H10L5 5L0 10V5L5 0Z" fill="#f4c2c9"/><path d="M20 15V20H15L20 15Z" fill="#f4c2c9"/><path d="M20 5V10L15 15L10 20H5L20 5Z" fill="#f4c2c9"/><path d="M15 0H20L5 15.0002L0 20.0002V15.0002L15 0Z" fill="#f4c2c9"/></g><g transform="translate(461.3,395.4) scale(3.2950000000000004) rotate(0)"><path d="M5 0H10L5 5L0 10V5L5 0Z" fill="#6d9e99"/><path d="M20 15V20H15L20 15Z" fill="#6d9e99"/><path d="M20 5V10L15 15L10 20H5L20 5Z" fill="#6d9e99"/><path d="M15 0H20L5 15.0002L0 20.0002V15.0002L15 0Z" fill="#6d9e99"/></g><rect x="0" y="461.30000000000007" width="65.9" height="65.9" fill="#fcf6ea"/><g transform="translate(0,461.3) scale(1.6475000000000002) rotate(0)"><path d="M10 0L20 10L10 20L0 10L10 0Z" fill="#ffffff"/></g><g transform="translate(32.95,461.3) scale(1.6475000000000002) rotate(0)"><path d="M5 0H10L5 5L0 10V5L5 0Z" fill="#ffffff"/><path d="M20 15V20H15L20 15Z" fill="#ffffff"/><path d="M20 5V10L15 15L10 20H5L20 5Z" fill="#ffffff"/><path d="M15 0H20L5 15.0002L0 20.0002V15.0002L15 0Z" fill="#ffffff"/></g><g transform="translate(0,494.25) scale(1.6475000000000002) rotate(0)"><path d="M5 0H10L5 5L0 10V5L5 0Z" fill="#ffe779"/><path d="M20 15V20H15L20 15Z" fill="#ffe779"/><path d="M20 5V10L15 15L10 20H5L20 5Z" fill="#ffe779"/><path d="M15 0H20L5 15.0002L0 20.0002V15.0002L15 0Z" fill="#ffe779"/></g><g transform="translate(32.95,494.25) scale(1.6475000000000002) rotate(0)"><path d="M5 0H10L5 5L0 10V5L5 0Z" fill="#ffe779"/><path d="M20 15V20H15L20 15Z" fill="#ffe779"/><path d="M20 5V10L15 15L10 20H5L20 5Z" fill="#ffe779"/><path d="M15 0H20L5 15.0002L0 20.0002V15.0002L15 0Z" fill="#ffe779"/></g><rect x="65.9" y="461.30000000000007" width="65.9" height="65.9" fill="#fcf6ea"/><g transform="translate(65.9,461.3) scale(1.6475000000000002) rotate(0)"><path d="M10 0H20L0 20V10L10 0Z" fill="#f4c2c9"/><path d="M20 10V20H10L20 10Z" fill="#f4c2c9"/></g><g transform="translate(98.85,461.3) scale(1.6475000000000002) rotate(0)"><path d="M5 0H10L5 5L0 10V5L5 0Z" fill="#f4c2c9"/><path d="M20 15V20H15L20 15Z" fill="#f4c2c9"/><path d="M20 5V10L15 15L10 20H5L20 5Z" fill="#f4c2c9"/><path d="M15 0H20L5 15.0002L0 20.0002V15.0002L15 0Z" fill="#f4c2c9"/></g><g transform="translate(65.9,494.25) scale(1.6475000000000002) rotate(0)"><path d="M5 0H10L5 5L0 10V5L5 0Z" fill="#6d9e99"/><path d="M20 15V20H15L20 15Z" fill="#6d9e99"/><path d="M20 5V10L15 15L10 20H5L20 5Z" fill="#6d9e99"/><path d="M15 0H20L5 15.0002L0 20.0002V15.0002L15 0Z" fill="#6d9e99"/></g><g transform="translate(98.85,494.25) scale(1.6475000000000002) rotate(0)"><path d="M10 0H20L0 20V10L10 0Z" fill="#ffe779"/><path d="M20 10V20H10L20 10Z" fill="#ffe779"/></g><g transform="translate(131.8,461.3) scale(3.2950000000000004) rotate(0)"><path d="M10 0H20L0 20V10L10 0Z" fill="#f4c2c9"/><path d="M20 10V20H10L20 10Z" fill="#f4c2c9"/></g><g transform="translate(197.7,461.3) scale(3.2950000000000004) rotate(0)"><path d="M10 0H20L0 20V10L10 0Z" fill="#f4c2c9"/><path d="M20 10V20H10L20 10Z" fill="#f4c2c9"/></g><g transform="translate(263.6,461.3) scale(3.2950000000000004) rotate(0)"><path d="M10 0H20L0 20V10L10 0Z" fill="#f4c2c9"/><path d="M20 10V20H10L20 10Z" fill="#f4c2c9"/></g><rect x="329.5" y="461.30000000000007" width="65.9" height="65.9" fill="#fcf6ea"/><g transform="translate(329.5,461.3) scale(1.6475000000000002) rotate(0)"><path d="M10 0H20L0 20V10L10 0Z" fill="#6d9e99"/><path d="M20 10V20H10L20 10Z" fill="#6d9e99"/></g><g transform="translate(362.45,461.3) scale(1.6475000000000002) rotate(0)"><path d="M10 0H20L0 20V10L10 0Z" fill="#ffffff"/><path d="M20 10V20H10L20 10Z" fill="#ffffff"/></g><g transform="translate(329.5,494.25) scale(1.6475000000000002) rotate(0)"><path d="M10 0L20 10L10 20L0 10L10 0Z" fill="#f4c2c9"/></g><g transform="translate(362.45,494.25) scale(1.6475000000000002) rotate(0)"><path d="M5 0H10L5 5L0 10V5L5 0Z" fill="#f4c2c9"/><path d="M20 15V20H15L20 15Z" fill="#f4c2c9"/><path d="M20 5V10L15 15L10 20H5L20 5Z" fill="#f4c2c9"/><path d="M15 0H20L5 15.0002L0 20.0002V15.0002L15 0Z" fill="#f4c2c9"/></g><g transform="translate(395.4,461.3) scale(3.2950000000000004) rotate(0)"><path d="M10 0L20 10L10 20L0 10L10 0Z" fill="#ffffff"/></g><g transform="translate(461.3,461.3) scale(3.2950000000000004) rotate(0)"><path d="M10 0H20L0 20V10L10 0Z" fill="#f4c2c9"/><path d="M20 10V20H10L20 10Z" fill="#f4c2c9"/></g><rect x="0" y="527.2" width="65.9" height="65.9" fill="#fcf6ea"/><g transform="translate(0,527.2) scale(1.6475000000000002) rotate(0)"><path d="M5 0H10L5 5L0 10V5L5 0Z" fill="#f4c2c9"/><path d="M20 15V20H15L20 15Z" fill="#f4c2c9"/><path d="M20 5V10L15 15L10 20H5L20 5Z" fill="#f4c2c9"/><path d="M15 0H20L5 15.0002L0 20.0002V15.0002L15 0Z" fill="#f4c2c9"/></g><g transform="translate(32.95,527.2) scale(1.6475000000000002) rotate(0)"><path d="M10 0H20L0 20V10L10 0Z" fill="#f4c2c9"/><path d="M20 10V20H10L20 10Z" fill="#f4c2c9"/></g><g transform="translate(0,560.15) scale(1.6475000000000002) rotate(0)"><path d="M5 0H10L5 5L0 10V5L5 0Z" fill="#6d9e99"/><path d="M20 15V20H15L20 15Z" fill="#6d9e99"/><path d="M20 5V10L15 15L10 20H5L20 5Z" fill="#6d9e99"/><path d="M15 0H20L5 15.0002L0 20.0002V15.0002L15 0Z" fill="#6d9e99"/></g><g transform="translate(32.95,560.15) scale(1.6475000000000002) rotate(0)"><path d="M10 0L20 10L10 20L0 10L10 0Z" fill="#6d9e99"/></g><rect x="65.9" y="527.2" width="65.9" height="65.9" fill="#fcf6ea"/><g transform="translate(65.9,527.2) scale(1.6475000000000002) rotate(0)"><path d="M10 0H20L0 20V10L10 0Z" fill="#6d9e99"/><path d="M20 10V20H10L20 10Z" fill="#6d9e99"/></g><g transform="translate(98.85,527.2) scale(1.6475000000000002) rotate(0)"><path d="M5 0H10L5 5L0 10V5L5 0Z" fill="#ffe779"/><path d="M20 15V20H15L20 15Z" fill="#ffe779"/><path d="M20 5V10L15 15L10 20H5L20 5Z" fill="#ffe779"/><path d="M15 0H20L5 15.0002L0 20.0002V15.0002L15 0Z" fill="#ffe779"/></g><g transform="translate(65.9,560.15) scale(1.6475000000000002) rotate(0)"><path d="M5 0H10L5 5L0 10V5L5 0Z" fill="#ffffff"/><path d="M20 15V20H15L20 15Z" fill="#ffffff"/><path d="M20 5V10L15 15L10 20H5L20 5Z" fill="#ffffff"/><path d="M15 0H20L5 15.0002L0 20.0002V15.0002L15 0Z" fill="#ffffff"/></g><g transform="translate(98.85,560.15) scale(1.6475000000000002) rotate(0)"><path d="M10 0H20L0 20V10L10 0Z" fill="#ffe779"/><path d="M20 10V20H10L20 10Z" fill="#ffe779"/></g><g transform="translate(131.8,527.2) scale(3.2950000000000004) rotate(0)"><path d="M5 0H10L5 5L0 10V5L5 0Z" fill="#6d9e99"/><path d="M20 15V20H15L20 15Z" fill="#6d9e99"/><path d="M20 5V10L15 15L10 20H5L20 5Z" fill="#6d9e99"/><path d="M15 0H20L5 15.0002L0 20.0002V15.0002L15 0Z" fill="#6d9e99"/></g><g transform="translate(197.7,527.2) scale(3.2950000000000004) rotate(0)"><path d="M10 0L20 10L10 20L0 10L10 0Z" fill="#ffffff"/></g><rect x="263.6" y="527.2" width="65.9" height="65.9" fill="#fcf6ea"/><g transform="translate(263.6,527.2) scale(1.6475000000000002) rotate(0)"><path d="M5 0H10L5 5L0 10V5L5 0Z" fill="#f4c2c9"/><path d="M20 15V20H15L20 15Z" fill="#f4c2c9"/><path d="M20 5V10L15 15L10 20H5L20 5Z" fill="#f4c2c9"/><path d="M15 0H20L5 15.0002L0 20.0002V15.0002L15 0Z" fill="#f4c2c9"/></g><g transform="translate(296.55,527.2) scale(1.6475000000000002) rotate(0)"><path d="M10 0L20 10L10 20L0 10L10 0Z" fill="#ffe779"/></g><g transform="translate(263.6,560.15) scale(1.6475000000000002) rotate(0)"><path d="M10 0H20L0 20V10L10 0Z" fill="#f4c2c9"/><path d="M20 10V20H10L20 10Z" fill="#f4c2c9"/></g><g transform="translate(296.55,560.15) scale(1.6475000000000002) rotate(0)"><path d="M10 0L20 10L10 20L0 10L10 0Z" fill="#ffe779"/></g><rect x="329.5" y="527.2" width="65.9" height="65.9" fill="#fcf6ea"/><g transform="translate(329.5,527.2) scale(1.6475000000000002) rotate(0)"><path d="M10 0H20L0 20V10L10 0Z" fill="#f4c2c9"/><path d="M20 10V20H10L20 10Z" fill="#f4c2c9"/></g><g transform="translate(362.45,527.2) scale(1.6475000000000002) rotate(0)"><path d="M5 0H10L5 5L0 10V5L5 0Z" fill="#ffe779"/><path d="M20 15V20H15L20 15Z" fill="#ffe779"/><path d="M20 5V10L15 15L10 20H5L20 5Z" fill="#ffe779"/><path d="M15 0H20L5 15.0002L0 20.0002V15.0002L15 0Z" fill="#ffe779"/></g><g transform="translate(329.5,560.15) scale(1.6475000000000002) rotate(0)"><path d="M10 0L20 10L10 20L0 10L10 0Z" fill="#ffffff"/></g><g transform="translate(362.45,560.15) scale(1.6475000000000002) rotate(0)"><path d="M10 0L20 10L10 20L0 10L10 0Z" fill="#ffffff"/></g><g transform="translate(395.4,527.2) scale(3.2950000000000004) rotate(0)"><path d="M5 0H10L5 5L0 10V5L5 0Z" fill="#6d9e99"/><path d="M20 15V20H15L20 15Z" fill="#6d9e99"/><path d="M20 5V10L15 15L10 20H5L20 5Z" fill="#6d9e99"/><path d="M15 0H20L5 15.0002L0 20.0002V15.0002L15 0Z" fill="#6d9e99"/></g><g transform="translate(461.3,527.2) scale(3.2950000000000004) rotate(0)"><path d="M5 0H10L5 5L0 10V5L5 0Z" fill="#f4c2c9"/><path d="M20 15V20H15L20 15Z" fill="#f4c2c9"/><path d="M20 5V10L15 15L10 20H5L20 5Z" fill="#f4c2c9"/><path d="M15 0H20L5 15.0002L0 20.0002V15.0002L15 0Z" fill="#f4c2c9"/></g><g transform="translate(0,593.1) scale(3.2950000000000004) rotate(0)"><path d="M10 0H20L0 20V10L10 0Z" fill="#6d9e99"/><path d="M20 10V20H10L20 10Z" fill="#6d9e99"/></g><rect x="65.9" y="593.1" width="65.9" height="65.9" fill="#fcf6ea"/><g transform="translate(65.9,593.1) scale(1.6475000000000002) rotate(0)"><path d="M10 0L20 10L10 20L0 10L10 0Z" fill="#f4c2c9"/></g><g transform="translate(98.85,593.1) scale(1.6475000000000002) rotate(0)"><path d="M5 0H10L5 5L0 10V5L5 0Z" fill="#6d9e99"/><path d="M20 15V20H15L20 15Z" fill="#6d9e99"/><path d="M20 5V10L15 15L10 20H5L20 5Z" fill="#6d9e99"/><path d="M15 0H20L5 15.0002L0 20.0002V15.0002L15 0Z" fill="#6d9e99"/></g><g transform="translate(65.9,626.05) scale(1.6475000000000002) rotate(0)"><path d="M10 0H20L0 20V10L10 0Z" fill="#6d9e99"/><path d="M20 10V20H10L20 10Z" fill="#6d9e99"/></g><g transform="translate(98.85,626.05) scale(1.6475000000000002) rotate(0)"><path d="M10 0H20L0 20V10L10 0Z" fill="#6d9e99"/><path d="M20 10V20H10L20 10Z" fill="#6d9e99"/></g><rect x="131.8" y="593.1" width="65.9" height="65.9" fill="#fcf6ea"/><g transform="translate(131.8,593.1) scale(1.6475000000000002) rotate(0)"><path d="M5 0H10L5 5L0 10V5L5 0Z" fill="#f4c2c9"/><path d="M20 15V20H15L20 15Z" fill="#f4c2c9"/><path d="M20 5V10L15 15L10 20H5L20 5Z" fill="#f4c2c9"/><path d="M15 0H20L5 15.0002L0 20.0002V15.0002L15 0Z" fill="#f4c2c9"/></g><g transform="translate(164.75,593.1) scale(1.6475000000000002) rotate(0)"><path d="M5 0H10L5 5L0 10V5L5 0Z" fill="#6d9e99"/><path d="M20 15V20H15L20 15Z" fill="#6d9e99"/><path d="M20 5V10L15 15L10 20H5L20 5Z" fill="#6d9e99"/><path d="M15 0H20L5 15.0002L0 20.0002V15.0002L15 0Z" fill="#6d9e99"/></g><g transform="translate(131.8,626.05) scale(1.6475000000000002) rotate(0)"><path d="M5 0H10L5 5L0 10V5L5 0Z" fill="#f4c2c9"/><path d="M20 15V20H15L20 15Z" fill="#f4c2c9"/><path d="M20 5V10L15 15L10 20H5L20 5Z" fill="#f4c2c9"/><path d="M15 0H20L5 15.0002L0 20.0002V15.0002L15 0Z" fill="#f4c2c9"/></g><g transform="translate(164.75,626.05) scale(1.6475000000000002) rotate(0)"><path d="M5 0H10L5 5L0 10V5L5 0Z" fill="#ffffff"/><path d="M20 15V20H15L20 15Z" fill="#ffffff"/><path d="M20 5V10L15 15L10 20H5L20 5Z" fill="#ffffff"/><path d="M15 0H20L5 15.0002L0 20.0002V15.0002L15 0Z" fill="#ffffff"/></g><g transform="translate(197.7,593.1) scale(3.2950000000000004) rotate(0)"><path d="M10 0H20L0 20V10L10 0Z" fill="#6d9e99"/><path d="M20 10V20H10L20 10Z" fill="#6d9e99"/></g><g transform="translate(263.6,593.1) scale(3.2950000000000004) rotate(0)"><path d="M5 0H10L5 5L0 10V5L5 0Z" fill="#f4c2c9"/><path d="M20 15V20H15L20 15Z" fill="#f4c2c9"/><path d="M20 5V10L15 15L10 20H5L20 5Z" fill="#f4c2c9"/><path d="M15 0H20L5 15.0002L0 20.0002V15.0002L15 0Z" fill="#f4c2c9"/></g><g transform="translate(329.5,593.1) scale(3.2950000000000004) rotate(0)"><path d="M10 0H20L0 20V10L10 0Z" fill="#f4c2c9"/><path d="M20 10V20H10L20 10Z" fill="#f4c2c9"/></g><g transform="translate(395.4,593.1) scale(3.2950000000000004) rotate(0)"><path d="M10 0H20L0 20V10L10 0Z" fill="#ffffff"/><path d="M20 10V20H10L20 10Z" fill="#ffffff"/></g><g transform="translate(461.3,593.1) scale(3.2950000000000004) rotate(0)"><path d="M10 0L20 10L10 20L0 10L10 0Z" fill="#ffe779"/></g></g></svg>